<?xml version="1.0" encoding="utf-8"?>
<!-- Generator: Adobe Illustrator 26.5.2, SVG Export Plug-In . SVG Version: 6.00 Build 0)  -->
<svg version="1.1" id="圖層_1" xmlns="http://www.w3.org/2000/svg" xmlns:xlink="http://www.w3.org/1999/xlink" x="0px" y="0px"
	 viewBox="0 0 990.9 171" style="enable-background:new 0 0 990.9 171;" xml:space="preserve">
<style type="text/css">
	.st0{fill-rule:evenodd;clip-rule:evenodd;fill:#FFFFFF;}
	.st1{fill:#91252A;}
	.st2{fill:#FFFFFF;}
</style>
<g>
	<path class="st0" d="M283.4,129.2c-0.2-3.7-0.6-7.5-1.4-11.2c-0.8-3.3-0.9-6.8-0.8-10.2c0-0.9,0.2-2.5-0.5-3.1
		c-0.4-0.4-0.6-0.1-0.8-0.7c-2.3-6.9,1.5-12.4,2-19.3c0.3-3.9-0.9-7.7-1.1-11.5c-0.2-3.4,0.9-6.7,1-10.1c0.1-2.8-1.4-5.5-1.3-8.3
		c0-0.5,0.1-1.1,0-1.6c-0.4-2.4-6.2-3.9-8.2-4.6c-0.4-0.1-0.7-0.2-1.1-0.4c-0.4-0.1-0.9-0.3-1.3-0.4c-0.3-0.1-0.7-0.1-1-0.1
		c-0.8-0.1-1.6-0.5-2.5-0.7c-1.9-0.5-3.9,0-5.8,0.2c-2.1,0.2-2.8-0.2-4.4-1.3c-1.3-1-3.5-0.4-5-0.5c-0.9,0-1.8-0.2-2.7,0
		c-0.8,0.2-1.4,0.7-2.1,0.9c-0.8,0.2-1.3-0.3-2.1-0.2c-2,0.1-4-0.9-6.3-1c-4.2-0.1-8.4-0.1-12.6-0.2c-0.9,0-2.1,0.1-2.4,1
		c-0.3,0.8,0.4,1.6,1,2.1c3.1,2.8,6.8,4.8,10.8,5.8c2.4,0.6,5,0.9,7.4,0.3c2.6-0.6,5.1-2.1,7.7-1.6c0.9,0.2,1.9,0.6,2.8,0.3
		c0.5-0.2,0.9-0.6,1.4-1c3.6-2.5,10.7,0.5,12.5,4.1c0.4,0.8,0.6,1.6,0.8,2.4c0.5,1.5,1,3.1,1.6,4.6c0.1,0.3,0.2,0.6,0.3,0.9
		c0.1,0.3,0.2,0.7,0.4,1c0.2,0.4,0.6,0.7,0.9,1.1c0.6,0.9,0.6,2,0.6,3c0,7.1-0.5,14-0.4,21c0.1,2.7,0.1,5.5,0.1,8.2
		c0.1,5.5,0,11-0.3,16.5c-0.1,2.5-0.3,4.9-0.5,7.4c-0.1,1.4-0.5,3.2-2.4,2.6c-0.9-0.3-1.6-1.1-2.3-1.7c-0.4-0.3-0.8-0.6-1.1-1
		c-0.4-0.6-0.4-1.4-0.3-2.1c0.1-0.7,0.3-1.4,0.2-2.1c-0.1-0.7-0.6-1.4-1.3-1.5c0.2-2.3-2.7-4.2-3.5-6.2c-0.6-1.4-0.5-3.2-0.4-4.7
		c0.1-1.1-0.3-3.8,0.8-4.5c0.4-0.3,0.9-0.2,1.2-0.5c0.3-0.4,0.4-0.9,0.4-1.4c0.1-0.5,0-1.1,0.1-1.6c0.2-0.6,0.6-1,1.1-1.4
		c1.1-1.2,0.7-3.1,0.6-4.6c-0.3-3.3-0.4-6.6,0-9.9c0.2-1.4,0-2.4-1.4-3c-1.5-0.7-2.5-1.7-3.4-3c-0.8-1.2-1.5-2.5-2.1-3.8
		c-0.5-1-1.3-2.6-0.4-3.5c0.5-0.5,1-0.6,1.2-1.4c0.2-0.7,0-1.6-0.1-2.3c-0.1-1.6-0.4-3.1-0.7-4.6c-0.3-1.2-0.6-2.7-1.9-3
		c-1.7-0.4-4.7-0.2-6.3,0.5c-0.7,0.3-1.2,0.9-1.3,1.6c-0.1,0.8,0.5,1.8,0,2.4c-0.2,0.3-0.6,0.4-0.9,0.5c-2.3,0.8-4,1.1-6.4,1.1
		c-1.5,0-3,0-4.4,0.7c-1.4,0.7-2.3,2-3.5,2.9c-1.2,0.9-2.6,1.5-4.1,1.9c-0.7,0.2-1.6,0.6-2.2,0c-0.3-0.3-0.5-0.6-0.9-0.7
		c-0.3-0.1-0.7,0-1-0.1c-0.4-0.1-0.7-0.6-0.9-1c-1.9-2.9-7.9-3.6-8.6,0.8c-0.1,0.6,0.2,1.2,0,1.7c-0.6,1.2-1.1,1.1-0.8,2.6
		c0.2,1.1,0.9,2.1,1.7,2.8c1.1,1.1,2.4,2,3.6,3c1.2,1,2.6,1.8,2.6,3.5c0,1.9-1.1,3.4-1.9,5c-0.5,1.1-0.6,2.9-1.6,3.7
		c-0.3,0.2-0.6,0.3-0.8,0.5c-0.2,0.3-0.2,0.7-0.3,1c0,1.1,0.1,2.4-0.1,3.4c-0.2,0.8-0.7,1.4-1,2.1c-0.5,1.2-0.3,3.3,0.5,4.3
		c0.7,0.9,2.1,0.2,2.9-0.1c2.3-0.9,4.6-3.7,7.2-3.4c0.4,1.7-0.3,3.7-1.4,5c-1.1,1.3-2.2,2.4-3,4c-0.4,0.8-0.8,1.6-1.1,2.4
		c-0.3,0.9-0.2,1.9-0.3,2.8c-0.1,0.8-0.6,1.4-0.9,2.1c-0.4,0.9-0.3,1.7,0.1,2.6c0.6,1.3,1.7,2.3,1.8,3.8c2.5,0.5,6.3-4,8.2-5.5
		c2.8-2.3,5.8-4.7,9.2-6.1c0.6-0.2,7.4-2.5,7.4-2.1c0.5,2.8-1.7,6.2-3,8.5c-1.5,2.5-3.3,4.8-5.5,6.9c-1.1,1.1-2.3,2.2-3.6,3
		c-0.7,0.4-1.2,0.5-1.9,0.5c-0.6,0-0.9,0-1.3,0.5c-0.7,0.9-0.7,1.8-1.8,2.3c-2.5,1.1-5.2,0.3-7.6,1.9c-0.7-0.9-2-0.9-3.2-0.9
		c-2.1,0-4.2-1.4-5-3.4c-0.5-1.3-0.2-3.1-0.2-4.5c0-3.7,0-7.4,0.1-11.1c0.1-2.6,0.2-5.1,0.2-7.7c0-1.4,0.6-5-0.8-6.1
		c-0.2-0.1-0.4-0.2-0.5-0.4c-0.1-0.2-0.2-0.5-0.2-0.7c-0.3-6.4,1.4-13.5-1.7-19.4c-0.6-1.2-1.5-2.6-2.7-3.2
		c-0.8-0.4-2.3-0.7-2.5,0.4c-0.5,2.6-0.2,5.5,0.5,8c0.3,1.3,1.6,3.2,1.4,4.5c0,0.4-0.3,0.8-0.5,1.1c-1,1.9-0.2,4.1-0.1,6.3
		c0.1,1.4-0.2,2.9-0.4,4.3c-0.8,4.5-1.6,9.1-3.1,13.4c-1.5,4.2-1.9,7.3-1.2,11.7c0.6,3.4,1,6.9,2.3,10c1,2.4,2.8,4.1,5.5,4.3
		c3.6,0.3,7.1-0.9,10.7-1.2c3.6-0.3,6.9-0.7,10.3-2.1c1.7-0.7,3.3-1.2,5.1-1.3c2.9-0.1,5-0.6,7.8-1.5c1.8-0.5,3.7-0.7,5.6-0.4
		c1.1,0.2,2.3,0.5,3.4,0.1c0.3-0.1,0.6-0.3,0.9-0.5c1-0.5,2.2-0.2,3.3,0.1c2.3,0.6,4.7,0.7,6.5,2.4c1.6,1.5,2.2,3.9,3.4,5.8
		c0.2,0.4,0.5,0.8,0.7,1.1c1,1.5,2,3.1,2.8,4.7c0.5,0.9,1,1.9,1.7,2.6c0.7,0.7,1.8,1.2,2.8,1c0.8-0.2,1.5-0.9,2.3-1.3
		c0.5-0.3,1.2-0.4,1.6-0.7c0.4-0.3,0.7-0.7,1-1.1c0.5-0.7,0.9-1.2,1.2-1.8c0.6-1,1.1-2,1.2-3.3c0.2-1.8,1-3.3,1.5-4.9
		C283.5,132.9,283.5,131,283.4,129.2 M242.8,97.2c-0.6,0.8-0.3,0.9-1.2,1.5c-1.1,0.7-1.8,1.1-2.8,2c-0.2,0.2,0,0.5-0.3,0.7
		c-0.3,0.2-0.8-0.1-1.1,0.1c-0.4,0.2-0.5,0.5-0.7,0.6c-1.1,0.7-2.5,0.5-3.8,0.3c0.2-1.4,1.6-3,2.7-4c1.1-1.1,2.9-1.4,3.9-2.7
		c0.7-0.8,0.3-1.7,0.3-2.7c0-1.7,0.4-2.6-1.5-2.9c-0.6-0.1-1.1-0.3-1.6-0.4c-1.1-0.2-2.1-0.5-3.2-0.7c-2.6-0.5-5.1-0.6-7.7-0.6
		c-0.2,0,1.6-4.7,1.9-5.1c1-1.6,2.3-3,3.8-4.2c1-0.8,2.6-2.5,3.9-2.3c0.3,0.1,0.6,0.2,0.9,0.4c3.2,1.9,4.3,6.2,5.7,9.4
		C243.4,89.9,245.1,94,242.8,97.2 M254.6,117.2c0,1.3,0,2.8-0.9,3.9c-0.6,0.7-1.3,0.6-2.1,0.6c-0.9,0-3,0.4-3.6-0.4
		c-0.1-0.1-0.1-0.1-0.1-0.2c-0.3-1.1,0.9-2.9,1.6-3.7c0.3-0.3,2.2-2.9,2.4-2.9h2C254.8,114.5,254.6,116.6,254.6,117.2 M255.8,86.1
		c-0.1,0.7-0.9,1-1.4,1.6c-1.4,1.7-3.6,0.8-4.8-0.6c-1.1-1.4-1.7-3.1-2.5-4.7c-0.9-1.7-1.8-3.4-2.5-5.2c-0.3-0.7-0.5-1.4-0.6-2.1
		c-0.2-1,2.1-2.3,2.9-2.5c0.6-0.2,1.2-0.2,2-0.2c1.2,0,2.4,0,3.7,0c0.8,0,1.2,0,1.7,0.7c0.2,0.3,0.4,0.5,0.6,0.7
		c0.4,0.4,0.8,0.4,1,0.9c0.3,1.1,0,2.5,0,3.6c0,1.1,0,3.8,0.2,4C256.1,82.4,255.9,85.2,255.8,86.1"/>
	<path class="st0" d="M330.3,60c0.8,1,1.7,2,2.3,3.1c1.1,2,0.4,3.9,2.9,4.5c0.9,0.2,1.5,0.6,2.2,1c2.7,1.3,6.6,0.4,9.5-0.1
		c0.2,0,0.4-0.1,0.5-0.2c0,0,0,0,0.1,0c1.7-1.5-1.6-6.6-2.8-7.5c-1.1-0.8-2.4-1.3-3.4-2.2c-1.2-1.1-1.9-2.5-3.7-2.8
		c-3.4-0.6-6.5-2.5-9.8-3.3c-0.3,0.6-0.9,1.3-1,1.9c-0.1,0.7,0.4,1.5,0.7,2C328.4,57.7,329.4,58.9,330.3,60"/>
	<path class="st0" d="M377.9,128.3c-0.8-1-1.9-1.6-3-2.1c-6.1-3-13.1-4.2-19.8-3.5c-1.5,0.2-3.6,0-3.8-1.5c-0.1-1,0.7-1.8,1.4-2.4
		c5.1-4.7,8.6-11,9.9-17.8c0.5-2.5,0.5-5.2-0.9-7.2c-1.2-1.6-3.3-2.5-5.4-2.6c-2-0.1-4.1,0.5-6,1.1c-1,0.3-2,0.7-2.8,1.4
		c-1.1,0.9-1.8,2.1-2.6,3.3c-2.6,3.8-6.5,6.6-10.3,9.3c-1.2,0.8-2.4,1.7-3.9,1.9c-1.4,0.2-3.1-0.5-3.5-1.9c-0.3-1.2,0.3-2.4,1-3.4
		c1.2-2,2.5-4.1,3.7-6.1c2.3-3.8,4.7-7.7,8.3-10.2c2.8-1.9,6.2-2.8,9.3-4c2.7-1.1,5.2-2.4,7.6-4c0.7-0.5,1.4-1,1.6-1.8
		c0.2-0.6,0-1.2-0.4-1.7c-0.4-0.6-1.1-1-1.8-1.3c-4-1.6-8.5,0.5-12.4,2.2c-7,3-14.4,4.8-21.9,5.8c-1.8,0.2-11.9,1.3-9.6,4.8
		c0.4,0.6,1,1,1.6,1.3c3.3,1.7,7.1,2.3,10.8,1.9c1.5-0.2,3.6-0.3,4.1,1.2c0.4,1-0.2,2-0.8,2.8c-1.8,2.6-3.7,5.1-5.7,7.5
		c-1,1.2-2.1,2.4-3.2,3.6c-0.8,0.8-1.6,1.6-2.4,2.4c-0.1,0.1-0.1,0.1-0.1,0.2c0,0.1,0.1,0.3,0.2,0.4c1.8,2,2.6,4.4,3.6,6.9
		c0.9,2.1,2.1,4.3,4.4,5c1.6,0.5,3.4,0,5-0.7c3.6-1.4,6.9-3.4,9.8-5.9c1.6-1.3,3.1-2.8,3.5-4.8c0.4-1.5,0-3.2,0.3-4.7
		c0.4-2.2,2.2-4.1,4.5-4.7c0.4-0.1,0.9-0.1,1.2,0.1c0.4,0.3,0.4,0.9,0.3,1.4c-0.8,7.2-6,13-11.1,18.1c-5.2,5.3-11,10.7-18.3,12.1
		c-1.3,0.2-2.6,0.4-3.7,1c-1.1,0.7-2,2.1-1.5,3.3c0.3,0.7,1,1.2,1.6,1.6c2.3,1.6,5,3,7.7,2.6c1.2-0.2,2.4-0.7,3.6-1.1
		c2.7-0.9,5.6-1.1,8.4-1.5c7.4-1.2,14.6-4.5,22.1-4c5.7,0.4,11.4,2.9,16.9,1.5c1.3-0.3,2.6-0.9,3.1-2.1
		C379.1,130.6,378.7,129.2,377.9,128.3"/>
	<path class="st0" d="M486.1,105.5c-0.2,0-0.3,1.4-2,1c-3.1-0.7-6-2.9-9-4.2c-1.5-0.7-3.4-1.7-5-1.8c-1.4-0.1-2.6,0.9-3.1,0.9
		c-0.6,0-4.4,2.4-5,4.1c-0.7,1.8,0,5.3-0.1,7.2c-0.2,4.3-0.4,8.8-1.8,12.8c-0.8,2.2-2.4,4.2-3,7c-5.3,1.7-10.7,3.3-16,5h-1v-3
		c1-0.3,2-0.7,3-1c0-0.3,1.3-1,2-1c0-0.3,2-1,3-1c3.9-1.6,7-4.4,8-9c1.7-1.8,1.6-4,1.4-6.3c0-0.6-1.3-4.1-1.3-3.9
		c0.5-3.6-4.7-4.7-6.1-6.9c0,0-1-1-1-1c1.4-1.5,6.8-4.6,5-9c0,0-1.7-1.4-2-2c3-2.7,6-5.3,9-8c1.9-2.6,2.3-5.2,5-7v-3
		c-2.3-0.7-4.8-1.6-7-2.3c-1.8-0.5-3.8-0.3-5.5-0.8c-2.3-0.6-4.3-2.2-6.7-2.4c-0.8-0.1-6.7,0.3-6.8,0.5c2.4-4.1,7.9-8.7,12-11
		c-0.1-4.4-1.2-5.5-4-7v-8c2.7-1.3,5.3-2.7,8-4v-2c1.1-1.1,0.4,0,1-2c-2.3-1.2-4.7-2.5-8-3c0-0.1-0.9-1.9-1.9-3.5
		c-1.6-2.5-3-2.1-5.3-0.6c-0.8,0.5-4.2,2.2-1.8,3c2.4,0.8,0.4,6.8-0.8,8.3c-0.8,0.9-8.3,4-8.3,2.8v3c3,0.3,6,0.7,9,1v8
		c-4.5,0-5.5,0.7-8,2c-0.3,0.2-0.1,3.8,0.2,4.2c0.8,0.9,2.6,0.8,3.6,0.6c0.1,0.2,0.4,2.2,0.2,2.2c-3,0.7-3.8,1.8-6,3
		c-0.2,9.3,3,9.4,10,9c1.7-0.1-3.4,3.5-2.9,3.1c-1.1,0.8-12.5,8-14.3,9.2c-0.8,0.5-2.5,1.3-3.3,1.7c-0.9,0.5-2.8,1.2-3.7,1.8
		c-2.4,1.7-5.5,3.3-7.6,4.9c-1,0.7-1.5,1.8-2.5,2.5c-1.8,1.3-4.4,2.5-6.6,2.7c0.4-2.5-1.7-3-0.3-6.1c1-2.3,3.1-4.6,5.2-5.8v-1
		c-3.4,0.9-11.3,4.5-13,7c-1.1,1.6,0,2.3-2,4c0,6.7,1.2,8.9,3,13c0.7,0.3,5.7,2.2,5.9,1.9c0.6-1.1,2.9-1.4,4.1-2.4
		c3.7-2.8,6.7-6.6,10.3-9.6c1.1-0.9,2.2-0.7,3.3-1.6c2-1.7,3.1-3.7,5.1-4.8c1.9-1,3.7-2.2,5.4-3.6c1.3-1.1,4.3-2.3,5.1-3.9
		c1.1-2.2,10.7-6.2,12.3-7.1c2.5-1.4,5.6-2.7,8.4-2.8c0.2,2.6-2.7,3.8-3.6,6c-2.5,5.7-10.5,7.4-13.2,7.8c-0.2,0.1-3.6,2.4-2,9
		c2-0.3,4-0.7,6-1c0.3-0.7,0.7-1.3,1-2c1,0,3-0.7,3-1h1c-1,3.7-3.8,4.7-7,6v5c0.3,0,1,0.7,1,1c1.7-0.3,3.3-0.7,5-1
		c4.5-0.9,7.6,7.1,7.9,7.2c0.1,1.9-1.4,5.7-2.9,6.9c-1.1,0.8-0.2-0.1-1,1h-1v-3c0.3,0,2.3-4.7-2-8c-0.3,0-4.4,0.2-4.4-0.2
		c0-0.3-3.2,0.2-4.6,0.2c-2.3,2-4.6,4-7,6c-1.2,1.7,0,2.3-2,4c-0.1,6,1.3,8,5,10c-1.4,5.1-2.4,2-6,4c-0.3,0.2-0.9,1.5-2,2
		c0.3,4.2,1.3,4.7,2,8c4.5,0,8.9-0.4,13.2-1.8c1.2-0.4,10.5-2.6,10.8-3.3c1.4-3.9,21.5-2,21.1-4.9c-1-9.3-2-18.7-3-28
		c6.6,0.5,8.2,3.6,13,5c2.3-0.3,4.7-0.7,7-1c1-2.3,2-4.7,3-7C488.8,106,488.4,105,486.1,105.5 M437.8,125.5
		c-0.8,1.4-1.8,3.7-3.7,2.9c-2-0.8-0.8-5-0.1-6.6c0.5-1.1,1.3-2.1,2-3c0.2-0.3,0.6-1.2,1.1-1.3c0.8-0.2,2,1,2.9,1
		C439.1,120.8,439.1,123.4,437.8,125.5"/>
	<path class="st0" d="M540.2,86.4c0.4,1,0.7,2,1,3c0.1,0.4,3.6-0.5,4-0.7c1.4-0.7,1.6-1.8,1.6-3.2c0-0.7,0-1.5,0.1-2.2
		c0.1-1.1,0.8-1.8,1.2-2.8c0.1-0.3-0.1-0.9,0.2-1.2c0.3-0.2,1.1,0,1.4,0.1c1,0.3,1.8,0.9,2.7,1.4c0.5,0.3,2.7,2.4,3,2.5
		c1.2,0.1,2.5,0.1,3.7,0.1c0.8-2.8,1.3-4.3,0.5-7.2c-0.2-1-1.5-5.6-2.4-5.9c-2-0.7-4-1.3-6-2c0,0-1.9,0.2-3-1c2.3-0.9,3.9-1.8,7-2
		c0.2-0.9,0-9,0-9c0,0,1.7-1.1,1-3c-0.7-0.3-1.3-0.7-2-1v-2h3v-3c-3.1-1.2-6.3-1.4-8-4c-6.6-0.2-7.2,0.4-8,6c-7.7,1.4-8.7,1.9-16,2
		c-0.6,1.6-1.8,5.1-1,8h1c1.6,5.9-3.4,12.9-6,15c0,2.8-0.5,6.7,1,8c1.2,1.1,1.2-0.7,3,2c7.4-0.4,6.7-6.8,6.7-12.4
		c0-1.9,1-16.4-1.7-16.6c3.3,0.3,6.7,0.7,10,1c0.3,1.7,2.1,4.5,1,7c-1,0.7-2,1.3-3,2c-0.9,1-0.8,2.1-2,3v1h4
		C537.9,75.8,535.8,82.7,540.2,86.4"/>
	<path class="st0" d="M574.2,61.1c-1.1-1.9-2-4-2.1-6.2c0-1.5,0.2-3,0.2-4.5c0,0-1.6-1.3-2-2h-4c-0.8,7.2-3,13.1-3,21
		c3.6,0,6.3-0.2,8-2c2.4-0.6,2.2-1.1,4-2C576.6,64.7,574.6,61.9,574.2,61.1"/>
	<path class="st0" d="M504.2,72.6c0.8,1.4,0.3,3.7,0.2,5.2c0,0.9-0.2,1.8,0,2.6c0.1,0.6,0.8,1.6,0.8,2c0,0.6,0,1.2,0.1,1.8
		c2-0.8,4.5-2.3,5.7-4c0.7-0.9,1.3-2.1,1.6-3.1c0.5-1.6,0.1-1.4-0.3-2.7c-0.4-1.4-0.1-1.8-1.1-2.9c-0.6-0.7-1.5-1.5-2.1-2.3
		c-0.4-0.5-2.5-3.7-3-3.7h-3c-1.1,1.1,0,0.4-2,1c0.5,1.4,0.8,3.1,1.5,4.4C503.1,71.6,503.8,71.9,504.2,72.6"/>
	<path class="st0" d="M524.6,90c-0.4,0.4-0.7,0.9-1,1.7c-0.8,2.3-2,4.5-3.6,6.4c-1,1.1-2.2,2-3.4,2.9c-0.2,0.2-2.7,2.5-2.5,2.5
		c-2.9-0.1-5.7-5.8-6.9-8c-0.8-1.3-0.8-4.3-2-5h-2c0.5,3,0.4,6.1,1,9.1c0.5,2.4-0.5,4-0.4,6.3c0.1,2.4,0.6,4.3-0.5,6.5
		c-0.9,1.9-2.5,3.5-2.6,5.7c-0.1,1.5,0,3,0.3,4.6c0.4,2.4,1.3,9.7,5.2,8.5c3.3-1,1.9-3.5,2.6-6c0.3-1.1,1.2-1.8,1.5-2.8
		c0.4-1.3,0.4-2.3,1.1-3.3c1.3-2.1,2.3-4.4,3.7-6.5c0.6-1,0.6-2.1,1.1-3.2c0.5-1.2,1-1.6,2.1-2.4c1.6-1.2,3.2-3.7,4.3-5.3
		c0.5-0.8,0.9-1.8,1.6-2.6c0.6-0.7,1.6-1,2.2-1.7c0.5-0.6,0.6-1.6,0.9-2.3c0.5-1.9,1.1-3.8,1.2-5.7C526.6,89.3,525.4,89.2,524.6,90"
		/>
	<path class="st0" d="M541.4,102.4c3,0.1,4.4,3.9,7.8,3c1.5-0.4,3-1.2,4.3-2.1c2.5-1.6,4.9-4.1,7.9-4.9c0.6-2-0.1-0.9,1-2
		c-0.1-2.9-0.4-4.3-1-6c-9.9,0.3-16.1,5.4-23,9C538.2,99.5,541.3,102.1,541.4,102.4"/>
	<path class="st0" d="M567.2,109.5c-5.8-0.1-13.2,0.2-16,3c-3.7-0.4-4.6-1.5-6-4c-1.7,0.3-3.4,0.7-5,1c0.4,2.7,0.7,5.4,1,8
		c1.1,0.9,0.2-0.1,1,1c0.7,0.9,5.9-2.3,6.6-2.8c1.8-1.4,3-1.3,5.3-1.3c0.1-2,7.2-0.6,7.2,0.1c-0.2,2.5-0.4,5-0.6,7.5
		c-0.1,1.3,0.2,2.6-0.1,3.8c-0.4,1.5-2.9,6.4-4.6,6.9c-3,0.9-6.7,0.8-9.7,0.8c0.5,4.9,2.6,7.1,3,12c0.7,0,2,0.7,2,1
		c0.8,0,6.5-2.4,7-3c1.4-0.3,2.5-0.9,3.4-1.9c1.4-1.5,1.7-2.2,2.6-4.1c1.1-2.6,2.7-4.8,3.5-7.6c0.6-2.2,0.9-4.4,1.5-6.5
		c0.2-3.8,1.9-8,0-10C568.6,111,568.2,111.3,567.2,109.5"/>
	<path class="st0" d="M676.4,83.4c-0.1-0.2-2.3-1.9-3-3c0,0-7.9-0.9-8.5-0.8c-2.9,0.3-8,2.5-10.2-0.6c-1-1.4-0.3-3.3-1.4-4.8
		c-0.9-1.3-2.8-1.4-3.6-2.8c-0.3-0.5-0.7-3.9-0.4-4c5.3-1,14.5-3.3,17-7c0.3,0,1-0.7,1-1c-1.8-1-3-2.2-4-4c-11.7,0.4-17.3,6-29,6v3
		c1.7,0.3,3.3,0.7,5,1c3,5,6,10,9,15c-0.6,2.3-0.7,3.3-2.9,4.2c-0.3,0.1-4.7,1.4-4.5,1.6c-0.7-1-0.4-1.9-0.6-3.1
		c-0.2-1.8-0.5-2.2-1.1-3.6c-0.2-0.2-0.4-0.2-0.6-0.1c-0.5,1.4-1.8,2.2-2.4,3.7c-0.7,1.9-1,3.3-1.9,4.8c-0.2,0.3-1.2,3.6-1.1,3.5
		c-2.3,2-4.7,4-7,6c-0.9,0.8-3.9,0.1-4.1-0.9c-2.9,0.2,1.7-5.3,2.2-6c1.9-2.6,2.8-4.5,2-7.6c-0.3-1.2-1.3-5.5-3.1-5.5h-3
		c-1.4-4.4,1.3-3.9,2.9-7.4c0.3-0.6,0.6-7.6,0.9-7.6c2,0.2,1.9-4.8,2.1-6.1c-1.9-0.1-10-1.1-11-2c-4.3,0.2-3.4,0.6-6,2
		c1.7,2.9,4.1,3.4,8,4c-0.1,6.8-1.7,8.7-4,13h-3c-2,0-2.8-5.5-3.8-6.7c-0.4-0.5-4.1-4.3-4.6-4.2c-1.4,0.1-4.5,0.1-5.7,0.9
		c0.4,3.2,1.4,5,3,7c0.7,0.3,1.3,0.7,2,1c0.7,0.3,0.5,7.9,0.6,9.1c0.1,1.7-0.5,6.5,1.3,7.1c1.9,0.6-0.4,13.8-1,13.8
		c-2,0-1.4,5.8-1.9,7.1c-0.6,1.6-1.9,2.7-2.2,4.4c-0.6,2.8,3.4,9,4.9,11.2c0.8,1.3,1.2,3.4,3.2,3.4c3.9-0.2,5.6-6.1,8.2-7.9
		c1.1-0.8,2.8-0.4,3.9-1.1c1.4-0.9,5.4-5.5,5.1-6.8c3.7-0.3,2.2-8.6,6.3-6.2c0.9,0.6,3.6,7.1,3.6,7.1c4.6-0.3,4.3-1.4,7-3
		c0.6-0.4-0.6-11.1-1.9-11.1c0.1-2.1,0.3-4.9,1.8-6.3c1.3-1.2,3.8-0.8,4.2-2.5c1.5,0.2,3.2,0.4,4,1.5c1.4,2,0.1,4.2,0,5.5
		c-0.6,5.1,1.1,9.5,1.1,14.4c0,3.8-0.2,7.7-0.2,11.5c0,4.7-0.1,8.4-1.2,13c-1,4.1-0.3,9.2,1.2,13.1c0.7,2,4.4-1.2,4.9-1.9
		c0.8-1.4,1.3-3.6,1.4-5.3c0.3-3-0.3-5.9-0.5-8.9c-0.3-2.8-0.6-5.8-0.3-8.7c0.2-2.2,1.5-4.4,1.5-6.3c0.2-3.8-0.9-9.8,1-12v-1
		c2,1.3,4.8,3,6,5c4.6,0,6.2-0.7,9-2C674.4,102.8,679.6,89.4,676.4,83.4 M609.3,86.6c0.5-1.1,4.7-3.6,5.8-3c0.1,0.1,0.2,0.2,0.4,0.3
		c0.3,0.2,1.1,2.3,1.2,2.8c0.9,3.6-3.4,8.3-6.4,9.7C608.4,94.7,608.3,88.9,609.3,86.6 M615,111.1c-1.3,1.1-3.1,1.3-5.7,0.4
		c0.1-5.2,0.4-3.9,2-7c2.9,0.1,4.3,0.3,6,1C617,108,616.3,110,615,111.1 M663.4,100.5c-0.5,0.8-4.7-0.5-5.5-1
		c-2.3-1.7-1.7-4.3-1.4-6.9c1.3-0.4,1.3-8.3,2.9-8.1c3.5,0.4,8.8,2,9,6.3C668.5,94.3,665.1,97.6,663.4,100.5"/>
	<path class="st0" d="M720.2,65.1c0.3,0.1,0.8,0,1.1,0.3c0.1,0.1,1.5,0.9,2.1,1c-0.1,0.6,0.4,1.1,0.9,1.3c2,0.7,4.3,0.2,6.4,0.1
		c0.6,0,2.5-0.7,3-1c1.1-0.6,2.3-0.7,3.4-1c0.6-0.2,1.1-0.4,1.5-0.8c0.6-0.5,4.1-1.5,4.9-2c0.6-0.4,1.4-2.6,1.9-2.6
		c0.7-0.1,8.9-1.2,8.9-0.9c0.5,2.5,12.8,0.8,15.1-0.1c-0.2-2.4-0.4-2.5-1-4h-10c0.2,0,0.8-4.3,1-5c0,0,0,0,0-0.1
		c0.3-0.3,2.4,0.2,2.9,0.2c1.3-0.2,1.6-0.9,2.5-1.2c1.8-0.4,3.4,1.2,5.3,0.8c0.4-0.1,4.2-2,4.2-1.9c-0.1-0.5-0.5-2.7-0.9-2.8
		c-2.4-0.9-6.2-1.1-10-1c-0.2,0-1.6-4.4-1.9-5c-0.4-0.6-0.9-1.1-1.4-1.6c-0.7-0.5-1.8-0.8-2.4-1.3c-0.2-0.2-2.9-0.1-3.2-0.1
		c-4.3,0.2-3.4,0.6-6,2c-0.4,0.2,0,5.2,0,5.8c0,1.4,0.6,3.8-0.2,5c-0.5,0.8-1.4,0.9-1.8,1.8c-0.8,1.9-2.3,3.2-3.1,5.1
		c-0.4,1-0.4,3.1-1.9,3.3c-6.3,0.7-12.7,1.3-19,2c0.4-3.2,0.9-2.9,2-5c0.2-0.4,1.7-0.7,2.1-0.8c0.8-0.3,1.6-0.5,2.5-0.7
		c1.7-0.5,3.5-0.9,5.3-1.2c1.8-0.4,3.6-0.7,5.4-1c0.9-0.1,1.5,0.1,1.7-0.9c0.2-0.6,0.1-1.7-0.2-2.2c-0.4-0.6-1.2-0.5-1.8-0.9
		c-0.4-0.3-0.6-1-1-1.3c-0.9-0.6-2.7-0.1-3.7,0c-1.3,0.1-2.6,0.1-3.9,0.1c-1.5-0.1-1.1-0.4-1.7-1.3c-0.8-1.3-2.6-1.6-3.6-2.6
		c-1.4-1.3-3.6-1.1-4.9,0.4c-1.2,1.4-0.3,3.1-0.6,4.8c-0.3,2-1.6,3.9-2.3,5.8c-0.5,1.2-1,3-1.8,4c-1,1.4-2.5,2-3.5,3.6
		c-0.3,0.5-2.1,5.4-2,5.4c2.4-0.2,4.5-1.4,6.8-2C718.2,65.2,719.3,64.9,720.2,65.1"/>
	<path class="st0" d="M779.6,112.5c-0.1-3.4,0.1-3.7-2-5c0-0.3-0.7-1-1-1c-2.6,4.9-5,8.3-6,15c-0.1,0.4-6.9,1.1-7.6,1.1
		c-3.3,0.2-5.5-1.1-8.5-2.2c-1.1-0.4-0.6-5.9-0.8-7.1c-0.5-2.7-1.2-5.5,0.3-8.1c0.4-0.6,0.9-1.3,1.5-1.6c2.7-1.4,5.3-3,7.7-5.1
		c1.1-0.9,2.6-2.8,3.3-4c1-1.5,1.3-3.1,2.3-4.6c1.3-1.9,3.2-3.5,3-6c-0.1-1.2-0.5-2.5-1-3.6c-0.2-0.5-2-3.9-2.4-3.9
		c-1.6,0.1-3.2,0-4.7,0.3c-0.5,0.1-1.3,0.1-1.7,0.5c-0.1,0.1-1,1.4-0.6,1.4c-2.1,0.6-3.8,0.7-5.7,1.8c-0.9,0.5-2.1,0.7-3,1.3
		c-1.5,0.9-1.1,1.3-3,0.9c-0.8-0.2-3.2-0.9-3.2-2v-1c-1.9-1.2-5-0.9-8-1c0.9-3.6,1.8-2.2,2-7c-2.7,0.3-5.3,0.7-8,1v1
		c-1.3,0.4-3,0.3-4.3-0.2c-0.1,0-2.5-1.7-1.8-1.7c-0.8,0.1-7.8,0.6-7.9,1c-0.8,3.2-2.4,6.1-4.2,8.7c-0.9,1.2-1.8,2.4-2.7,3.7
		c-0.4,0.6-0.9,1.2-1.1,1.8c-0.2,0.8,0,1.4-0.6,2c-0.5,0.5-1.1,0.7-1.4,1.4c-0.3,0.6-0.2,1.3-0.8,1.8c-0.6,0.4-1.1,0.4-1.5,1
		c-0.3,0.3-0.4,0.8-0.6,1.2c-0.5,1-1,2.1-1.4,3.2c-0.5,1.3-0.7,2.8-0.9,4.2c-0.1,0.7-0.4,1.4,0,2.1c0.3,0.5,1,0.9,1.3,1.4
		c0.6,0.9,0.5,2.2,1.1,3.1c0.6,0.9,1.5,1.5,2.5,1.8c1,0.3,1.9,0.6,2.9,0.8c0.7,0.2,7.3,1.3,7.4,0.8c-0.1,1.8-0.5,3.5-1.6,4.9
		c-2.3,3.1-7,4-10.2,6c-1.1,0.7-3.3,1.5-3.3,3c0,0.6,5.9-0.5,6.3-0.6c1.9-0.7,5.9-1.7,7.5,0.8c1,1.6-0.2,3.6,0.2,5.3
		c0.6,2.6,3.2,7.5,6.6,5.9c3.5-1.6,2.4-7.2,2.9-10.1c0.7-4.1,1.7-9.1,4.2-12.5c2.1-2.8,16-8.3,12.4-13.4c-1.1-1.6-4-0.5-5.5-1.9
		c-1.7-1.7-0.9-3.8,0.4-5.5c1.2-1.7,3.2-2,5-2.7c1-0.4,3.3-2.4,4.1-2.4c3.8,0,7.6,0.1,10,1c0.1,0,0.2,4.3,0.1,4.6
		c-0.1,0.4-2,2.8-2.4,3.1c-1.3,1-3.3,0.5-4.7,1.3c-0.3,0.2-0.9,1.5-2,2c-0.9,2.2-1.8,4.4-2.2,6.7c-0.3,2,0.6,4,0.6,6
		c0,2.1-0.6,4.1,0.3,6.2c1.3,2.9,1.8,6,4.3,8.1c2.8,2.4,6.7,3.9,10.3,4.2c3.9,0.3,7.8-1.5,11.6-2.2c2.9-0.5,4.6-2.6,7.2-4
		C781.4,121.5,782.5,115.3,779.6,112.5 M713.5,88.4h1c0.9,0.4-1.9,2-2,2C712.8,89.8,713.1,89.1,713.5,88.4 M720.3,103.3
		c-0.2,0.4-0.6,0.7-1.3,0.9c-0.9,0.3-2.9,0-3.7-0.5c-1.2-0.8-1.4-1.8-1.7-3.2c0.7,0.1,1.1-0.4,1.2-1c0.5,0,5.7,0.7,5.7,0.9
		C720.5,101.7,720.7,102.6,720.3,103.3 M726.5,110.5h-3c0.8-2.7,0.2-2.3,3-3V110.5z"/>
	<path class="st0" d="M865.7,119.6c-0.2-1.4-2.5-7.8-4-8.2c-2.8-0.6-4.8-2.3-7-3c-3.4-1.1-8.1-0.8-11.7-1.1c-3.4-0.3-7.5,0-10.3-1.9
		c1.8-2.4,1.3-6.1,2.6-8.8c0.8-1.6,0.6-1,2.2-1.4c1-0.2,2-0.7,2.3-1.7c1.7,0.3,2.7-1.6,4-2.4c1.7-1,3.4-2,5.4-2.4
		c1.6-0.4,3-0.5,4.4-1.6c1.3-1.1,1.6-1.5,3.4-2.1c0.8-0.3,1.4-0.9,1.9-1.3c2.1-1.3,3.4-2.1,4.1-4.6c0.1-0.4,1.2-4.8,0.8-4.8
		c-1.1,0-17.1,0.4-17.1,0.1c-1.5-0.4-3.4-0.1-4.9-0.1c0,0,0-0.7-2-1c-1.6-0.3-0.6-8.3-0.5-9.4c0.1-2.3,0.2-4.6,0.1-6.9
		c-0.1-2.2-0.6-3.1-1.5-5c-0.2-0.4,0-1-0.2-1.4c-0.5-0.9-1.4-2.4-2.2-3.2c-0.1-0.1-0.1-0.1-0.2-0.2c-0.9-0.8-3-1.1-4.2-1.4
		c-3.2-0.9-7-1.5-9.4,1.4c-1.5,1.8-2.1,5.2-1.4,7.5c0.5,1.5,0.8,3.1,1.3,4.6s1.6,2.6,2.2,4.1c0.4,1.1,0.4,2.5,0.6,3.7
		c0.2,2-0.1,5.6,1.3,7.2c0.1,9.1-1.4,5-7,7c-1.5,0.5-4.9,1.1-6.1,2.1c-0.8,0.6-0.9,4.9-0.9,4.9c0.7,0,2.7,2,3,2
		c1.1,1.2,2.7,1.5,3.7,2.6c0,0,2.2,3.2,2.2,2.5c-0.1,1.8-0.7,4.2-1.6,5.8c-0.6,1.2-1.5,1.2-2.3,2.2c-0.4,0.5,0.1,1.5-0.3,2.1
		c-0.5,0.7-1.4,0.8-2,1.7c-1.1,1.8-0.4,2.6-2,4.1c-1.6,1.6-3.9,2.8-5.7,4.1v5c3.2-0.2,5.2-1.5,8-2.6c2.4-0.9,5.2-0.6,7.2-2.6
		c1.3-1.3,2-2.3,3.8-2.8c0-0.3,3.8-0.1,4.1,0c1.7,0.2,2.1,1.3,3.6,2c1.5,0.7,3.3,0.3,4.8,1c1.5,0.6,2.6,1.9,3.9,2.7
		c0.8,0.5,1.4,0.3,2.2,1.1c0.7,0.7,0.9,1.8,1.7,2.5c0.9,0.7,2,0.7,2.9,1.2c1.2,0.7,2.8,2.2,2.8,2.5c0.7,0.2,9.7,1.6,9.8,1
		c0.2-1.6,2.4-1.7,3.3-2.7C865.8,122.5,865.9,121.1,865.7,119.6"/>
	<path class="st0" d="M988.9,62.4h-6v1h-7c0-0.3-2,0-2,0c-1.3-0.3-2.7-0.7-4-1c-0.6-0.1,1.1-3.9,1.9-4.1c0.1-3.4,0.7-6.8,1.7-10.1
		c0.2-0.7,1.5-6.8,2.4-6.8c0.3-1.3,1.7-4,2-4c1.4-3.6-0.5-5.3,2-8c-0.2-2.4-0.4-2.5-1-4c-3-0.5-9.7-2.4-14-1v1
		c-4.7,1.3-9.4,2.7-14,4c-0.5-2.5-1-3.7-1-7c-0.4,0-1-0.7-1-1c-3.8,0-7.6,0.1-10,1c0.7,4,1.3,8,2,12c-0.4,0.1-4.9,0.8-5,0.9
		c0.2-1.5-1.3-0.9-2-1.5c-0.3-0.3-1.1-2.4-1-2.4c-5-0.4-4.9-0.9-10,0c0.1,3.3,0.2,4.5,2,6c0.1,3.1,0.5,7.4-1,9c-2,2.1-2-3.3-3.5-4.4
		c-1.1-0.8-1.2-1-1.9-2.1c-0.3-0.5-0.2-1-0.7-1.4c-0.5-0.4-1.1-0.4-1.6-0.9c-0.6-0.6-0.9-1.5-1.4-2.2c-0.3,0-2-0.7-2-1
		c-3.9,0.1-8.1,0.8-10,3c-0.3,0-1.7,3-2,3c2.3,2.8,4.9,5.5,5.9,9c0.2,0.7,0.3,1.8,0.7,2.4c0.5,0.8,1.4,0.9,1.9,1.9
		c0.4,1,0.2,2.4,0.2,3.4c0,1.1-0.1,2.2,0,3.3c0.1,1.3,1.3,3,1.3,4c0.1,5.2,0.4,3.9,2,7h7c0-0.3,0.7-1,1-1c2.2-3.5-2.2-8.1,2-12
		c0.8-1.1-0.1-0.1,1-1c1.9,5.2,1.1,9.7,5,13c-0.4,1-0.7,2-1,3c-3.8,0.7-8.7,2-12,3h-6c-1.1,0.2-2.8,2-5,1c-0.7-1-1.4-2-2-3
		c-0.7,0-2-0.7-2-1c-3.3,0.3-6.7,0.7-10,1c0.1,3.2,0.1,4.8,1,7c0.1,0.3,0.2,0.6,0.3,1c0.3,1.6,0.4,3.2,0.5,4.9
		c0.1,0.9,0.1,1.8,0.2,2.8c0,1,0.4,1.8,0.6,2.7c0.2,0.7,0.1,1.4,0.3,2.1c0.2,0.6,0.6,1.2,0.9,1.8c0.4,0.9,0.7,1.2,1.4,1.9
		c1.3,1.3,2.9,1,4.6,1c0.5,0,1,0.1,1.3-0.2c0.2-0.3,0.2-0.9,0.2-1.3c0.1-0.6,0.3-1.2,0.4-1.8c0.4-1.4,0.8-2.7,1.2-4.1
		c0.4-1.3,0.7-2.6,1.1-3.8c0.1-0.4,0.8-3.7,1.1-3.8c14.7-2.3,29.4-4.7,44.1-7c0-0.3,2.7-1.7,4-2c0-0.3,5.7-0.9,8-3c1.3,0,4,0.7,4,1
		c0.3,0,1,2,1,3c5.5-0.1,7.9-0.5,12-2c0-0.3,4-1,6-1c0-0.3,1.3-1,2-1c0.3-0.7,3-2.7,4-3v-4C990.5,65.4,989.2,63.4,988.9,62.4
		 M939.8,70.4h-5c-0.3-7.5-0.9-16.4,0-26h3c0.9,1.1-0.1,0.2,1,1c-0.3,2-0.7,4-1,6h-1c-2.2,6.2,1.5,13,4,15
		C940.6,68.8,940.4,68.9,939.8,70.4 M947.8,54.4c-1,0.3-2,0.7-3,1c0.1,0-2.7-3.6-1-4.1c0.1-0.5,1.6-5.2,2-4.9c3,2.1,0.4,1.8,2,4h1
		C948.6,52.7,948.4,52.9,947.8,54.4 M952.8,67.4c0.3-2.7,0.6-5.3,1-8c2-0.6,0.9,0.1,2-1c2.9,0.1,4.3,0.4,6,1
		C961.7,65.4,958.4,67.1,952.8,67.4 M964.8,49.3c-0.3,0.1-0.7,0.2-1,0.1c0.3,1.7-5.1,1.8-5.1,2c-0.3-0.9-0.7-1.9-0.9-2.8
		c0.7-0.2,2.2-3.1,1.9-3.2c1.6,0.3,3.3,0.7,5,1C964.9,46.4,964.9,49,964.8,49.3 M965.8,37.4c-3.7,0.6-2.3,0.6-6,0c-0.4-1-0.7-2-1-3
		c0.7-0.3,1.3-0.7,2-1c0.5-0.5,0.8-1,1.7-0.9c0.2,0,3.3,2.4,3.3,2C965.8,34.7,965.9,37.4,965.8,37.4"/>
	<path class="st0" d="M970.8,104.5c-0.3-0.7-0.7-1.3-1-2c-3.6-2.1-8.7,1.5-14,0c0-0.3-2-1-3-1c0-0.3-0.7-1-1-1c1-7.1,8.2-5.6,10-12
		c1.6-1.6,2.1-5.7,2-9c-5.7,0.3-11.4,0.7-17,1c-0.3,0.7-2.3,2-3,2c0,0.3-1.3,1-2,1c0,0.3-3.3,1-5,1c-0.3,0.7-3,2-4,2
		c-0.3,0.7-5,2.7-7,3c-2.7,1.3-5.4,2.7-8,4c0.6,2.4,1,2.2,2,4h8c5-3,10-6,15-9c1.7,0.3,3.3,0.7,5,1v3c-3.7,2-7.4,4-11,6
		c0,3.6-0.2,4.6,2,6c-0.3,1.1-0.7,3-2,3.2c-0.8,0.1-1.6,0.2-2.4,0.3c-0.7,0.1-1.5,0.2-2.2,0.4c-0.9,0.2-1.5,0.8-2.4,1
		c-0.7,0.2-1.3,0.3-2,0.6c-0.8,0.4-1.8,0.3-2.6,0.7c-1,0.5-1.5,1.1-2.6,1.2c-0.8,0.1-1.6,0.1-2.3,0.2c-1.6,0.3-3.3,0.5-4.9,0.8
		c-3.2,0.5-6.5,1-9.7,1.5c0.1,2.6,0.4,3.4,1,5c7.4,3,28.3,3.5,33.1-2c2.8,0.1,4.3,0.4,6,1c-0.2,1.9-0.6,3.8-1.2,5.7
		c-0.4,1.2-0.5,2.5-0.6,3.8c-0.2,1.6,0.1,3.4-0.3,5c-0.3,0.9-1.1,1.5-1.3,2.4c-0.1,0.4-0.1,2.1-0.6,2.2c-4.6,1-7.2,4.6-12,5
		c0-0.3-2-0.7-2-1c-1.7-0.3-3.3-0.7-5-1c0.5,4.3,2.3,4.2,4,7c2.7,0.6,5.3,1.3,8,1.6c1.6,0.2,3.1,0.3,4.7,0.4c0.8,0,1.6,0.2,2.3-0.1
		c0.6-0.3,1-0.9,1.6-1.1c0.5-0.2,1.1-0.1,1.7-0.4c1-0.5,1.5-1.5,2.3-2.2c0.8-0.8,1.9-1.4,2.4-2.4c0.5-1,0.7-2.2,1.1-3.3
		c0.5-1.2,1.2-2.3,1.6-3.6c0.2-0.7,0.2-1.4,0.2-2.1c0-0.6,0.1-0.8,0.3-1.3c0.3-1.2,0.5-2.4,0.6-3.6c0.1-0.6,0-1.3,0.1-1.8
		c0.1-0.4,0.5-0.7,0.6-1.1c1-2.9,0.1-5.9,0.6-8.8c0.4-2.4,1-4.8,1.8-7.1c2-0.3,4-0.7,6-1c0-0.3,3.3-1,5-1c0.3-0.7,0.7-1.3,1-2
		c0.7,0,2-0.7,2-1C971.2,105.5,971.2,104.5,970.8,104.5"/>
	<path class="st1" d="M171,85.2c0.2,47.2-38,85.6-85.2,85.8C38.6,171.2,0.2,133,0,85.8C-0.2,38.6,38,0.2,85.2,0
		C132.4-0.2,170.8,38,171,85.2"/>
	<path class="st2" d="M57.4,22.8l0.6,0.5c5.1,4.2,6.9,6.2,9.1,14.4l4.1,12.4c0,0.2,0.1,0.3,0.1,0.5c0,0,0,0.1,0,0.1
		c0.6,1.5,2.1,2.7,3.8,2.7c0,0,0.1,0,0.1,0l10.1,0l10.1,0c0,0,0.1,0,0.1,0c1.7-0.1,3.2-1.2,3.8-2.7c0,0,0-0.1,0-0.1
		c0.1-0.2,0.1-0.3,0.1-0.5l4.1-12.4c2.3-8.2,4-10.2,9.1-14.4l0.6-0.5c1.1-0.8,1.9-2.1,1.9-3.6c0-1.5-0.8-2.9-2-3.6
		c-0.2-0.1-0.3-0.2-0.5-0.3c0,0,0,0-0.1,0c-0.1-0.1-0.3-0.1-0.5-0.2c-6.8-2.6-13.6-4.1-20.4-4.7c-1-2.2-3.6-3.8-6.6-3.8
		c-3,0-5.6,1.6-6.6,3.8c-6.8,0.6-13.6,2.1-20.4,4.7c-0.2,0-0.3,0.1-0.5,0.2c0,0,0,0-0.1,0c-0.2,0.1-0.3,0.2-0.5,0.3
		c-1.2,0.8-2,2.1-2,3.6C55.5,20.7,56.2,22,57.4,22.8 M61.8,19.2c7.5-2.6,15.1-4,23.1-4.1l0.6,0l0,0l0,0v0l0,0v0h0.6
		c8,0.1,15.6,1.5,23.1,4.1c0,0,0.4,0.1,0.4,0.5c0,0.2-0.1,0.4-0.3,0.5l0,0c-7.6,4.8-10.1,16.3-10.1,16.3l-3.4,11.2l0,0.1
		c-0.2,0.7-0.9,1.2-1.6,1.2l0,0l-8.6,0l0,0l0,0l-8.6,0v0c-0.8,0-1.4-0.5-1.6-1.2l0-0.1l-3.4-11.2c0,0-2.5-11.6-10.1-16.3v0
		c-0.2-0.1-0.3-0.3-0.3-0.5C61.4,19.3,61.8,19.2,61.8,19.2"/>
	<path class="st2" d="M11,74.8c0,1.4,0.8,2.8,2.1,3.5c1.3,0.7,2.8,0.7,4,0.1l0.8-0.3c6.2-2.4,8.8-2.8,17-0.7l12.7,2.7
		c0.2,0.1,0.3,0.1,0.5,0.1c0,0,0.1,0,0.1,0c1.6,0.2,3.3-0.5,4.3-1.9c0,0,0.1-0.1,0.1-0.1l5.1-8.8l5.1-8.8c0,0,0-0.1,0.1-0.1
		c0.8-1.5,0.6-3.4-0.4-4.7c0,0,0-0.1-0.1-0.1c-0.1-0.1-0.2-0.3-0.4-0.4l-8.7-9.7c-6-6-6.9-8.6-7.9-15.1l-0.1-0.8
		c-0.1-1.4-0.8-2.7-2.1-3.4c-1.3-0.8-2.9-0.7-4.1-0.1c-0.2,0.1-0.3,0.2-0.5,0.3v0c0,0,0,0,0,0c-0.1,0.1-0.3,0.2-0.4,0.3
		c-5.6,4.6-10.4,9.7-14.3,15.3c-2.4-0.2-5,1.2-6.6,3.8c-1.5,2.6-1.4,5.6,0,7.6c-2.9,6.2-5,12.9-6.1,20c0,0.2-0.1,0.3-0.1,0.5
		c0,0,0,0,0,0.1h0C11,74.4,11,74.6,11,74.8 M16.2,72.9c1.5-7.8,4.1-15.1,8-22l0.3-0.5h0l0,0v0h0v0l0.3-0.5
		c4.1-6.9,9.1-12.8,15.1-17.9c0,0,0.3-0.3,0.6-0.1c0.2,0.1,0.3,0.3,0.2,0.5l0,0c0.3,9,9.1,16.9,9.1,16.9l8,8.6l0,0
		c0.5,0.5,0.6,1.3,0.2,2l0,0l-4.3,7.4v0l0,0l-4.3,7.4l0,0c-0.4,0.7-1.1,1-1.8,0.8l-0.1,0l-11.5-2.6c0,0-11.2-3.6-19.2,0.6h0
		c-0.2,0.1-0.4,0.1-0.6,0C16.1,73.3,16.2,72.9,16.2,72.9"/>
	<path class="st2" d="M62.4,115.2C62.4,115.2,62.4,115.1,62.4,115.2c1.1-1.4,1.3-3.2,0.5-4.8c0-0.1,0-0.1-0.1-0.1l-5.1-8.8l-5.1-8.8
		c0,0-0.1-0.1-0.1-0.1c-0.9-1.5-2.6-2.2-4.3-1.9c0,0-0.1,0-0.1,0c-0.2,0-0.3,0.1-0.5,0.1L35,93.5c-8.2,2.1-10.9,1.7-17-0.7l-0.8-0.3
		c-1.2-0.6-2.7-0.6-4,0.1c-1.3,0.8-2.1,2.1-2.1,3.5c0,0.2,0,0.4,0,0.6l0,0c0,0,0,0,0,0.1c0,0.2,0,0.3,0.1,0.5
		c1.1,7.1,3.2,13.9,6.1,20c-1.4,2-1.5,5,0,7.6c1.5,2.6,4.1,4.1,6.6,3.8c3.9,5.6,8.7,10.8,14.3,15.3c0.1,0.1,0.2,0.2,0.4,0.3
		c0,0,0,0,0.1,0v0c0.2,0.1,0.3,0.2,0.5,0.3c1.3,0.7,2.8,0.7,4.1-0.1c1.3-0.7,2-2,2.1-3.4l0.1-0.8c1-6.5,2-9.1,7.9-15.1l8.7-9.7
		C62.1,115.5,62.3,115.3,62.4,115.2 M57.9,113.2L57.9,113.2l-8,8.6c0,0-8.8,7.9-9.1,16.9v0c0,0.2-0.1,0.4-0.2,0.5
		c-0.3,0.2-0.6-0.1-0.6-0.1c-6-5.2-11-11.1-15.1-17.9l-0.3-0.5l0,0h0v0l-0.3-0.5c-3.9-7-6.5-14.2-8-22c0,0-0.1-0.4,0.2-0.6
		c0.2-0.1,0.4-0.1,0.5,0h0c8,4.2,19.2,0.6,19.2,0.6l11.5-2.6l0.1,0c0.7-0.1,1.5,0.2,1.8,0.8l0,0l4.3,7.4l0,0l4.3,7.4l0,0
		C58.5,111.9,58.4,112.7,57.9,113.2"/>
	<path class="st2" d="M113.6,148.2l-0.6-0.5c-5.1-4.2-6.9-6.2-9.1-14.4l-4.1-12.4c0-0.2-0.1-0.3-0.2-0.5c0,0,0-0.1,0-0.1
		c-0.6-1.5-2.1-2.6-3.8-2.7c0,0-0.1,0-0.1,0l-10.1,0l-10.1,0c0,0-0.1,0-0.1,0c-1.7,0.1-3.2,1.2-3.8,2.7c0,0,0,0.1,0,0.1
		c-0.1,0.2-0.1,0.3-0.2,0.5l-4.1,12.4c-2.3,8.2-4,10.2-9.1,14.4l-0.6,0.5c-1.2,0.8-1.9,2.1-1.9,3.5c0,1.5,0.8,2.9,2,3.6
		c0.2,0.1,0.3,0.2,0.5,0.3h0c0,0,0,0,0.1,0c0.1,0.1,0.3,0.1,0.5,0.2c6.8,2.6,13.6,4.1,20.4,4.7c1,2.2,3.6,3.8,6.6,3.8
		c3,0,5.6-1.6,6.6-3.8c6.8-0.6,13.6-2.1,20.4-4.7c0.2,0,0.3-0.1,0.5-0.2c0,0,0,0,0.1,0l0,0c0.2-0.1,0.3-0.2,0.5-0.3
		c1.2-0.8,2-2.1,2-3.6C115.5,150.3,114.8,149,113.6,148.2 M109.2,151.8c-7.5,2.6-15.1,4-23.1,4.1h-0.6l0,0h0h0l0,0h-0.6
		c-8-0.1-15.6-1.5-23.1-4.1c0,0-0.4-0.1-0.4-0.5c0-0.2,0.1-0.4,0.3-0.5v0c7.6-4.8,10.1-16.3,10.1-16.3l3.4-11.2l0,0
		c0.2-0.7,0.9-1.2,1.6-1.2v0l8.6,0l0,0l0,0l8.6,0v0c0.8,0,1.4,0.5,1.6,1.2l0,0l3.4,11.2c0,0,2.5,11.6,10.1,16.3l0,0
		c0.2,0.1,0.3,0.3,0.3,0.5C109.6,151.7,109.2,151.8,109.2,151.8"/>
	<path class="st2" d="M160,96.2c-0.1-1.4-0.8-2.8-2.1-3.5c-1.3-0.7-2.8-0.7-4-0.1l-0.8,0.3c-6.2,2.4-8.8,2.8-17,0.7l-12.7-2.7
		c-0.2-0.1-0.3-0.1-0.5-0.1c0,0-0.1,0-0.1,0c-1.6-0.3-3.3,0.5-4.3,1.9c0,0-0.1,0.1-0.1,0.1l-5.1,8.8l-5.1,8.8c0,0,0,0.1-0.1,0.1
		c-0.8,1.5-0.6,3.4,0.5,4.7c0,0,0,0.1,0.1,0.1c0.1,0.1,0.2,0.3,0.4,0.4l8.7,9.7c5.9,6,6.9,8.6,7.9,15.1l0.1,0.8
		c0.1,1.4,0.8,2.7,2.1,3.4c1.3,0.8,2.9,0.7,4.1,0.1c0.2-0.1,0.3-0.2,0.5-0.3v0c0,0,0,0,0,0c0.1-0.1,0.3-0.2,0.4-0.3
		c5.6-4.6,10.4-9.7,14.3-15.3c2.4,0.2,5-1.2,6.6-3.8c1.5-2.6,1.4-5.6,0-7.6c2.9-6.2,5-12.9,6.1-20c0-0.2,0.1-0.3,0.1-0.5
		c0,0,0,0,0-0.1h0C160,96.6,160,96.4,160,96.2 M154.8,98.1c-1.5,7.8-4.1,15.1-8,22l-0.3,0.5v0h0h0l-0.3,0.5
		c-4.1,6.9-9.1,12.8-15.1,17.9c0,0-0.3,0.3-0.6,0.1c-0.2-0.1-0.3-0.3-0.2-0.5h0c-0.3-9-9.1-16.9-9.1-16.9l-8-8.6l0,0
		c-0.5-0.5-0.6-1.3-0.2-2l0,0l4.3-7.4l0,0l0,0l4.3-7.4l0,0c0.4-0.7,1.1-1,1.8-0.8l0.1,0l11.5,2.6c0,0,11.2,3.6,19.2-0.6h0
		c0.2-0.1,0.4-0.1,0.6,0C154.9,97.7,154.8,98.1,154.8,98.1"/>
	<path class="st2" d="M108.6,55.8C108.6,55.8,108.6,55.9,108.6,55.8c-1.1,1.4-1.3,3.2-0.5,4.7c0,0,0,0.1,0.1,0.1l5.1,8.8l5.1,8.8
		c0,0,0.1,0.1,0.1,0.1c0.9,1.5,2.6,2.2,4.3,1.9c0,0,0.1,0,0.1,0c0.2,0,0.3-0.1,0.5-0.1l12.7-2.7c8.2-2.1,10.9-1.7,17,0.7l0.8,0.3
		c1.2,0.6,2.7,0.6,4-0.1c1.3-0.8,2.1-2.1,2.1-3.5c0-0.2,0-0.4,0-0.6v0c0,0,0,0,0-0.1c0-0.2,0-0.3-0.1-0.5c-1.1-7.1-3.2-13.9-6.1-20
		c1.4-2,1.5-5,0-7.6c-1.5-2.6-4.2-4-6.6-3.8c-3.9-5.6-8.7-10.8-14.3-15.3c-0.1-0.1-0.2-0.2-0.4-0.3c0,0,0,0-0.1,0l0,0
		c-0.1-0.1-0.3-0.2-0.5-0.3c-1.3-0.7-2.8-0.7-4.1,0.1c-1.3,0.7-2,2-2.1,3.4l-0.1,0.8c-1,6.5-2,9.1-7.9,15.1l-8.7,9.7
		C108.9,55.5,108.7,55.7,108.6,55.8 M113.1,57.8L113.1,57.8l8-8.6c0,0,8.8-7.9,9.1-16.9l0,0c0-0.2,0.1-0.4,0.2-0.5
		c0.3-0.2,0.6,0.1,0.6,0.1c6,5.2,11,11.1,15.1,17.9l0.3,0.5v0h0v0l0,0l0,0h0l0.3,0.5c3.9,7,6.5,14.2,8,22c0,0,0.1,0.4-0.2,0.6
		c-0.2,0.1-0.4,0.1-0.6,0v0c-8-4.2-19.2-0.6-19.2-0.6l-11.5,2.6l-0.1,0c-0.7,0.1-1.4-0.2-1.8-0.8l0,0l-4.3-7.4l0,0l-4.3-7.4l0,0
		C112.5,59.1,112.6,58.3,113.1,57.8"/>
	<path class="st2" d="M110.6,87.8h-0.9h-2.3h-7.3v3.6h6.3h0.7l-0.2,0.7c-3,9.4-11.6,15.7-21.4,15.7c-9.8,0-18.4-6.3-21.4-15.7
		l-0.2-0.7h0.7h6.3v-3.6h-7.3h-2.2h-0.9c-0.7,0-1.3,0.6-1.3,1.3c0,0,0,0.1,0,0.1c0.9,5.9,3.7,11.4,8.2,15.6
		c4.9,4.6,11.4,7.2,18.2,7.2c6.8,0,13.2-2.5,18.2-7.2c4.4-4.1,7.3-9.6,8.2-15.5c0,0,0-0.1,0-0.1C111.9,88.4,111.3,87.9,110.6,87.8"
		/>
	<path class="st2" d="M111.9,81.4c0,0,0-0.1,0-0.1c-0.9-5.9-3.7-11.4-8.2-15.5c-4.1-3.9-9.3-6.3-14.9-6.9V63
		c8.4,1.2,15.5,7.1,18.2,15.4l0.2,0.7h-0.7h-6.3v3.6h7.3h2.3h0.9C111.3,82.7,111.9,82.1,111.9,81.4"/>
	<path class="st2" d="M60.4,82.7h0.9h2.2h7.3v-3.6h-6.3h-0.7l0.2-0.7c2.7-8.3,9.7-14.2,18.1-15.4v-4.2c-5.5,0.7-10.7,3.1-14.9,6.9
		c-4.4,4.1-7.3,9.6-8.2,15.6c0,0,0,0.1,0,0.1C59.1,82.1,59.7,82.7,60.4,82.7"/>
	<path class="st2" d="M76.2,99.9v2.5c5.6-1.4,8.2-4.5,9.5-7.1c1.3,2.6,3.9,5.6,9.4,7.1v-2.5c-6.4-1.9-7.8-6.2-8.1-8.2h0.2h7.5v-2.5
		H87v-0.1v-3.3h-2.4v1.1v2.2v0.1h-8.2v2.5h7.8h0.2C84.1,93.7,82.7,98,76.2,99.9"/>
	<path class="st2" d="M88.5,70.7h-3.6c-0.3,0-0.5,0.2-0.5,0.5l0,10.8l2.1,0v-9.6h2v11.8h2.2V72.3l2.1,0v9.6h2V71.1
		c0-0.3-0.2-0.5-0.5-0.5h-3.6V69h4.5v-1.7H83.8V69h4.7L88.5,70.7L88.5,70.7z"/>
	<path class="st2" d="M79,69.8c1-0.9,1.2-2.5,1.2-2.5h-2.1c0,0-0.2,1.6-0.8,2.5h-0.7c-0.3,0-0.5,0.2-0.5,0.5v13
		c0,0.3,0.2,0.5,0.5,0.5h5.6c0.3,0,0.5-0.2,0.5-0.5v-5.4c0-0.3-0.2-0.5-0.5-0.5l-4.1,0v-1.7h4.1c0.3,0,0.5-0.2,0.5-0.5l0-5
		c0-0.3-0.2-0.5-0.5-0.5L79,69.8z M80.7,82.2h-2.6v-2.8h2.6V82.2z M80.7,73.8h-2.6v-2.2h2.6V73.8z"/>
</g>
</svg>
