<?xml version="1.0" encoding="utf-8"?>
<!-- Generator: Adobe Illustrator 26.5.2, SVG Export Plug-In . SVG Version: 6.00 Build 0)  -->
<svg version="1.1" xmlns="http://www.w3.org/2000/svg" xmlns:xlink="http://www.w3.org/1999/xlink" x="0px" y="0px"
	 viewBox="0 0 1920 300" style="enable-background:new 0 0 1920 300;" xml:space="preserve">
<style type="text/css">
	.st0{fill:#FFCE05;}
	.st1{opacity:0.6;}
	.st2{fill:none;stroke:#FFFFFF;stroke-linecap:round;stroke-linejoin:round;stroke-miterlimit:10;}
	.st3{fill:#FFFFFF;}
	.st4{fill:#93CE4C;}
	.st5{opacity:0.7;}
	.st6{opacity:0;fill:none;stroke:#F9FBFC;stroke-width:1.5;stroke-miterlimit:10;}
	.st7{opacity:5.263200e-02;fill:none;stroke:#F9FBFC;stroke-width:1.5;stroke-miterlimit:10;}
	.st8{opacity:0.1053;fill:none;stroke:#F9FBFC;stroke-width:1.5;stroke-miterlimit:10;}
	.st9{opacity:0.1579;fill:none;stroke:#F9FBFC;stroke-width:1.5;stroke-miterlimit:10;}
	.st10{opacity:0.2105;fill:none;stroke:#F9FBFC;stroke-width:1.5;stroke-miterlimit:10;}
	.st11{opacity:0.2632;fill:none;stroke:#F9FBFC;stroke-width:1.5;stroke-miterlimit:10;}
	.st12{opacity:0.3158;fill:none;stroke:#F9FBFC;stroke-width:1.5;stroke-miterlimit:10;}
	.st13{opacity:0.3684;fill:none;stroke:#F9FBFC;stroke-width:1.5;stroke-miterlimit:10;}
	.st14{opacity:0.4211;fill:none;stroke:#F9FBFC;stroke-width:1.5;stroke-miterlimit:10;}
	.st15{opacity:0.4737;fill:none;stroke:#F9FBFC;stroke-width:1.5;stroke-miterlimit:10;}
	.st16{opacity:0.5263;fill:none;stroke:#F9FBFC;stroke-width:1.5;stroke-miterlimit:10;}
	.st17{opacity:0.5789;fill:none;stroke:#F9FBFC;stroke-width:1.5;stroke-miterlimit:10;}
	.st18{opacity:0.6316;fill:none;stroke:#F9FBFC;stroke-width:1.5;stroke-miterlimit:10;}
	.st19{opacity:0.6842;fill:none;stroke:#F9FBFC;stroke-width:1.5;stroke-miterlimit:10;}
	.st20{opacity:0.7368;fill:none;stroke:#F9FBFC;stroke-width:1.5;stroke-miterlimit:10;}
	.st21{opacity:0.7895;fill:none;stroke:#F9FBFC;stroke-width:1.5;stroke-miterlimit:10;}
	.st22{opacity:0.8421;fill:none;stroke:#F9FBFC;stroke-width:1.5;stroke-miterlimit:10;}
	.st23{opacity:0.8947;fill:none;stroke:#F9FBFC;stroke-width:1.5;stroke-miterlimit:10;}
	.st24{opacity:0.9474;fill:none;stroke:#F9FBFC;stroke-width:1.5;stroke-miterlimit:10;}
	.st25{fill:none;stroke:#F9FBFC;stroke-width:1.5;stroke-miterlimit:10;}
	.st26{opacity:0;fill:none;stroke:#FFFFFF;stroke-width:1.5;stroke-miterlimit:10;}
	.st27{opacity:6.250000e-02;fill:none;stroke:#FFFFFF;stroke-width:1.5;stroke-miterlimit:10;}
	.st28{opacity:0.125;fill:none;stroke:#FFFFFF;stroke-width:1.5;stroke-miterlimit:10;}
	.st29{opacity:0.1875;fill:none;stroke:#FFFFFF;stroke-width:1.5;stroke-miterlimit:10;}
	.st30{opacity:0.25;fill:none;stroke:#FFFFFF;stroke-width:1.5;stroke-miterlimit:10;}
	.st31{opacity:0.3125;fill:none;stroke:#FFFFFF;stroke-width:1.5;stroke-miterlimit:10;}
	.st32{opacity:0.375;fill:none;stroke:#FFFFFF;stroke-width:1.5;stroke-miterlimit:10;}
	.st33{opacity:0.4375;fill:none;stroke:#FFFFFF;stroke-width:1.5;stroke-miterlimit:10;}
	.st34{opacity:0.5;fill:none;stroke:#FFFFFF;stroke-width:1.5;stroke-miterlimit:10;}
	.st35{opacity:0.5625;fill:none;stroke:#FFFFFF;stroke-width:1.5;stroke-miterlimit:10;}
	.st36{opacity:0.625;fill:none;stroke:#FFFFFF;stroke-width:1.5;stroke-miterlimit:10;}
	.st37{opacity:0.6875;fill:none;stroke:#FFFFFF;stroke-width:1.5;stroke-miterlimit:10;}
	.st38{opacity:0.75;fill:none;stroke:#FFFFFF;stroke-width:1.5;stroke-miterlimit:10;}
	.st39{opacity:0.8125;fill:none;stroke:#FFFFFF;stroke-width:1.5;stroke-miterlimit:10;}
	.st40{opacity:0.875;fill:none;stroke:#FFFFFF;stroke-width:1.5;stroke-miterlimit:10;}
	.st41{opacity:0.9375;fill:none;stroke:#FFFFFF;stroke-width:1.5;stroke-miterlimit:10;}
	.st42{fill:none;stroke:#FFFFFF;stroke-width:1.5;stroke-miterlimit:10;}
	
		.st43{opacity:0;fill:none;stroke:#FFFFFF;stroke-width:1.5;stroke-linecap:round;stroke-linejoin:round;stroke-miterlimit:10;stroke-dasharray:0,4.1803;}
	
		.st44{opacity:6.250000e-02;fill:none;stroke:#FFFFFF;stroke-width:1.5;stroke-linecap:round;stroke-linejoin:round;stroke-miterlimit:10;stroke-dasharray:0,4.1803;}
	
		.st45{opacity:0.125;fill:none;stroke:#FFFFFF;stroke-width:1.5;stroke-linecap:round;stroke-linejoin:round;stroke-miterlimit:10;stroke-dasharray:0,4.1803;}
	
		.st46{opacity:0.1875;fill:none;stroke:#FFFFFF;stroke-width:1.5;stroke-linecap:round;stroke-linejoin:round;stroke-miterlimit:10;stroke-dasharray:0,4.1803;}
	
		.st47{opacity:0.25;fill:none;stroke:#FFFFFF;stroke-width:1.5;stroke-linecap:round;stroke-linejoin:round;stroke-miterlimit:10;stroke-dasharray:0,4.1803;}
	
		.st48{opacity:0.3125;fill:none;stroke:#FFFFFF;stroke-width:1.5;stroke-linecap:round;stroke-linejoin:round;stroke-miterlimit:10;stroke-dasharray:0,4.1803;}
	
		.st49{opacity:0.375;fill:none;stroke:#FFFFFF;stroke-width:1.5;stroke-linecap:round;stroke-linejoin:round;stroke-miterlimit:10;stroke-dasharray:0,4.1803;}
	
		.st50{opacity:0.4375;fill:none;stroke:#FFFFFF;stroke-width:1.5;stroke-linecap:round;stroke-linejoin:round;stroke-miterlimit:10;stroke-dasharray:0,4.1803;}
	
		.st51{opacity:0.5;fill:none;stroke:#FFFFFF;stroke-width:1.5;stroke-linecap:round;stroke-linejoin:round;stroke-miterlimit:10;stroke-dasharray:0,4.1803;}
	
		.st52{opacity:0.5625;fill:none;stroke:#FFFFFF;stroke-width:1.5;stroke-linecap:round;stroke-linejoin:round;stroke-miterlimit:10;stroke-dasharray:0,4.1803;}
	
		.st53{opacity:0.625;fill:none;stroke:#FFFFFF;stroke-width:1.5;stroke-linecap:round;stroke-linejoin:round;stroke-miterlimit:10;stroke-dasharray:0,4.1803;}
	
		.st54{opacity:0.6875;fill:none;stroke:#FFFFFF;stroke-width:1.5;stroke-linecap:round;stroke-linejoin:round;stroke-miterlimit:10;stroke-dasharray:0,4.1803;}
	
		.st55{opacity:0.75;fill:none;stroke:#FFFFFF;stroke-width:1.5;stroke-linecap:round;stroke-linejoin:round;stroke-miterlimit:10;stroke-dasharray:0,4.1803;}
	
		.st56{opacity:0.8125;fill:none;stroke:#FFFFFF;stroke-width:1.5;stroke-linecap:round;stroke-linejoin:round;stroke-miterlimit:10;stroke-dasharray:0,4.1803;}
	
		.st57{opacity:0.875;fill:none;stroke:#FFFFFF;stroke-width:1.5;stroke-linecap:round;stroke-linejoin:round;stroke-miterlimit:10;stroke-dasharray:0,4.1803;}
	
		.st58{opacity:0.9375;fill:none;stroke:#FFFFFF;stroke-width:1.5;stroke-linecap:round;stroke-linejoin:round;stroke-miterlimit:10;stroke-dasharray:0,4.1803;}
	
		.st59{fill:none;stroke:#FFFFFF;stroke-width:1.5;stroke-linecap:round;stroke-linejoin:round;stroke-miterlimit:10;stroke-dasharray:0,4.1803;}
	.st60{opacity:0.1667;fill:none;stroke:#FFFFFF;stroke-width:1.4684;stroke-miterlimit:10;}
	.st61{opacity:0.2083;fill:none;stroke:#FFFFFF;stroke-width:1.4368;stroke-miterlimit:10;}
	.st62{opacity:0.25;fill:none;stroke:#FFFFFF;stroke-width:1.4052;stroke-miterlimit:10;}
	.st63{opacity:0.2917;fill:none;stroke:#FFFFFF;stroke-width:1.3735;stroke-miterlimit:10;}
	.st64{opacity:0.3333;fill:none;stroke:#FFFFFF;stroke-width:1.3419;stroke-miterlimit:10;}
	.st65{opacity:0.375;fill:none;stroke:#FFFFFF;stroke-width:1.3103;stroke-miterlimit:10;}
	.st66{opacity:0.4167;fill:none;stroke:#FFFFFF;stroke-width:1.2787;stroke-miterlimit:10;}
	.st67{opacity:0.4583;fill:none;stroke:#FFFFFF;stroke-width:1.2471;stroke-miterlimit:10;}
	.st68{opacity:0.5;fill:none;stroke:#FFFFFF;stroke-width:1.2155;stroke-miterlimit:10;}
	.st69{opacity:0.5417;fill:none;stroke:#FFFFFF;stroke-width:1.1838;stroke-miterlimit:10;}
	.st70{opacity:0.5833;fill:none;stroke:#FFFFFF;stroke-width:1.1522;stroke-miterlimit:10;}
	.st71{opacity:0.625;fill:none;stroke:#FFFFFF;stroke-width:1.1206;stroke-miterlimit:10;}
	.st72{opacity:0.6667;fill:none;stroke:#FFFFFF;stroke-width:1.089;stroke-miterlimit:10;}
	.st73{opacity:0.7083;fill:none;stroke:#FFFFFF;stroke-width:1.0574;stroke-miterlimit:10;}
	.st74{opacity:0.75;fill:none;stroke:#FFFFFF;stroke-width:1.0258;stroke-miterlimit:10;}
	.st75{opacity:0.7917;fill:none;stroke:#FFFFFF;stroke-width:0.9941;stroke-miterlimit:10;}
	.st76{opacity:0.8333;fill:none;stroke:#FFFFFF;stroke-width:0.9625;stroke-miterlimit:10;}
	.st77{opacity:0.875;fill:none;stroke:#FFFFFF;stroke-width:0.9309;stroke-miterlimit:10;}
	.st78{opacity:0.9167;fill:none;stroke:#FFFFFF;stroke-width:0.8993;stroke-miterlimit:10;}
	.st79{opacity:0.9583;fill:none;stroke:#FFFFFF;stroke-width:0.8677;stroke-miterlimit:10;}
	.st80{fill:none;stroke:#FFFFFF;stroke-width:0.8361;stroke-miterlimit:10;}
	.st81{opacity:0;fill:none;stroke:#FFFFFF;stroke-width:0.8361;stroke-miterlimit:10;}
	.st82{opacity:6.250000e-02;fill:none;stroke:#FFFFFF;stroke-width:0.8361;stroke-miterlimit:10;}
	.st83{opacity:0.125;fill:none;stroke:#FFFFFF;stroke-width:0.8361;stroke-miterlimit:10;}
	.st84{opacity:0.1875;fill:none;stroke:#FFFFFF;stroke-width:0.8361;stroke-miterlimit:10;}
	.st85{opacity:0.25;fill:none;stroke:#FFFFFF;stroke-width:0.8361;stroke-miterlimit:10;}
	.st86{opacity:0.3125;fill:none;stroke:#FFFFFF;stroke-width:0.8361;stroke-miterlimit:10;}
	.st87{opacity:0.375;fill:none;stroke:#FFFFFF;stroke-width:0.8361;stroke-miterlimit:10;}
	.st88{opacity:0.4375;fill:none;stroke:#FFFFFF;stroke-width:0.8361;stroke-miterlimit:10;}
	.st89{opacity:0.5;fill:none;stroke:#FFFFFF;stroke-width:0.8361;stroke-miterlimit:10;}
	.st90{opacity:0.5625;fill:none;stroke:#FFFFFF;stroke-width:0.8361;stroke-miterlimit:10;}
	.st91{opacity:0.625;fill:none;stroke:#FFFFFF;stroke-width:0.8361;stroke-miterlimit:10;}
	.st92{opacity:0.6875;fill:none;stroke:#FFFFFF;stroke-width:0.8361;stroke-miterlimit:10;}
	.st93{opacity:0.75;fill:none;stroke:#FFFFFF;stroke-width:0.8361;stroke-miterlimit:10;}
	.st94{opacity:0.8125;fill:none;stroke:#FFFFFF;stroke-width:0.8361;stroke-miterlimit:10;}
	.st95{opacity:0.875;fill:none;stroke:#FFFFFF;stroke-width:0.8361;stroke-miterlimit:10;}
	.st96{opacity:0.9375;fill:none;stroke:#FFFFFF;stroke-width:0.8361;stroke-miterlimit:10;}
</style>
<g id="laboratoryBG">
	<rect x="0" y="-330" transform="matrix(-1 -1.224647e-16 1.224647e-16 -1 1920 300)" class="st0" width="1920" height="960"/>
</g>
<g id="laboratory">
	<g class="st1">
		<g>
			<polygon class="st2" points="819,25.6 718.9,247.5 1033.5,189.5 			"/>
			<polygon class="st2" points="1121,25.6 1434.1,274.4 1748.7,216.4 			"/>
			<polygon class="st2" points="718.9,247.5 513.1,247.5 555.2,378.7 			"/>
			<polygon class="st2" points="1037.7,319.8 718.9,247.5 884.9,385.4 			"/>
			<polygon class="st2" points="1126.1,317.8 1033.5,189.5 1037.7,319.8 			"/>
			<polyline class="st2" points="1033.5,189.5 1121,25.6 1126.1,317.8 			"/>
			<path class="st2" d="M1121,25.6"/>
			<line class="st2" x1="1126.1" y1="317.8" x2="1434.1" y2="274.4"/>
			<polyline class="st2" points="1126.1,317.8 1336.6,385.4 1434.1,274.4 			"/>
			<polygon class="st2" points="757.8,-92.1 718.9,247.5 513.1,113 			"/>
			<polyline class="st2" points="313.8,153.4 513.1,113 429.6,180.3 513.1,247.5 313.8,153.4 718.9,247.5 			"/>
			<polyline class="st2" points="1121,25.6 866.5,220.3 816.3,328.4 555.2,378.7 			"/>
			<polyline class="st2" points="1336.6,385.4 884.9,385.4 811.6,557 1037.7,319.8 866.5,220.3 819,25.6 757.8,-92.1 			"/>
			<g>
				<path class="st3" d="M763.1-92.1c0,2.9-2.4,5.3-5.3,5.3c-2.9,0-5.3-2.4-5.3-5.3c0-2.9,2.4-5.3,5.3-5.3
					C760.7-97.4,763.1-95,763.1-92.1z"/>
				<path class="st3" d="M760.4-92.1c0,1.5-1.2,2.7-2.7,2.7c-1.5,0-2.7-1.2-2.7-2.7c0-1.5,1.2-2.7,2.7-2.7
					C759.3-94.8,760.4-93.6,760.4-92.1z"/>
			</g>
			<g>
				<path class="st3" d="M724.2,247.5c0,2.9-2.4,5.3-5.3,5.3s-5.3-2.4-5.3-5.3s2.4-5.3,5.3-5.3S724.2,244.6,724.2,247.5z"/>
				<path class="st3" d="M721.6,247.5c0,1.5-1.2,2.7-2.7,2.7c-1.5,0-2.7-1.2-2.7-2.7c0-1.5,1.2-2.7,2.7-2.7
					C720.4,244.9,721.6,246.1,721.6,247.5z"/>
			</g>
			<g>
				<path class="st3" d="M560.4,378.7c0,2.9-2.4,5.3-5.3,5.3s-5.3-2.4-5.3-5.3c0-2.9,2.4-5.3,5.3-5.3S560.4,375.8,560.4,378.7z"/>
				<path class="st3" d="M557.8,378.7c0,1.5-1.2,2.7-2.7,2.7c-1.5,0-2.7-1.2-2.7-2.7c0-1.5,1.2-2.7,2.7-2.7
					C556.6,376.1,557.8,377.2,557.8,378.7z"/>
			</g>
			<g>
				<path class="st3" d="M518.4,247.5c0,2.9-2.4,5.3-5.3,5.3c-2.9,0-5.3-2.4-5.3-5.3s2.4-5.3,5.3-5.3
					C516,242.3,518.4,244.6,518.4,247.5z"/>
				<path class="st3" d="M515.8,247.5c0,1.5-1.2,2.7-2.7,2.7c-1.5,0-2.7-1.2-2.7-2.7c0-1.5,1.2-2.7,2.7-2.7
					C514.6,244.9,515.8,246.1,515.8,247.5z"/>
			</g>
			<g>
				<path class="st3" d="M435.8,180.3c0,2.9-2.4,5.3-5.3,5.3c-2.9,0-5.3-2.4-5.3-5.3c0-2.9,2.4-5.3,5.3-5.3
					C433.5,175,435.8,177.4,435.8,180.3z"/>
				<path class="st3" d="M433.2,180.3c0,1.5-1.2,2.7-2.7,2.7c-1.5,0-2.7-1.2-2.7-2.7c0-1.5,1.2-2.7,2.7-2.7
					C432.1,177.6,433.2,178.8,433.2,180.3z"/>
			</g>
			<g>
				<path class="st3" d="M518.4,113c0,2.9-2.4,5.3-5.3,5.3c-2.9,0-5.3-2.4-5.3-5.3c0-2.9,2.4-5.3,5.3-5.3
					C516,107.8,518.4,110.1,518.4,113z"/>
				<path class="st3" d="M515.8,113c0,1.5-1.2,2.7-2.7,2.7c-1.5,0-2.7-1.2-2.7-2.7c0-1.5,1.2-2.7,2.7-2.7
					C514.6,110.4,515.8,111.5,515.8,113z"/>
			</g>
			<g>
				<path class="st3" d="M319.1,155.3c0,2.9-2.4,5.3-5.3,5.3c-2.9,0-5.3-2.4-5.3-5.3c0-2.9,2.4-5.3,5.3-5.3
					C316.8,150,319.1,152.4,319.1,155.3z"/>
				<path class="st3" d="M316.5,155.3c0,1.5-1.2,2.7-2.7,2.7c-1.5,0-2.7-1.2-2.7-2.7c0-1.5,1.2-2.7,2.7-2.7
					C315.3,152.6,316.5,153.8,316.5,155.3z"/>
			</g>
			<g>
				<path class="st3" d="M817.2,557c0,2.9-2.4,5.3-5.3,5.3c-2.9,0-5.3-2.4-5.3-5.3c0-2.9,2.4-5.3,5.3-5.3
					C814.9,551.7,817.2,554.1,817.2,557z"/>
				<circle class="st3" cx="812" cy="557" r="2.7"/>
			</g>
			<g>
				<path class="st3" d="M872.4,220.5c0,2.9-2.4,5.3-5.3,5.3c-2.9,0-5.3-2.4-5.3-5.3s2.4-5.3,5.3-5.3
					C870,215.2,872.4,217.6,872.4,220.5z"/>
				<path class="st3" d="M869.8,220.5c0,1.5-1.2,2.7-2.7,2.7c-1.5,0-2.7-1.2-2.7-2.7c0-1.5,1.2-2.7,2.7-2.7
					C868.6,217.8,869.8,219,869.8,220.5z"/>
			</g>
			<g>
				<path class="st3" d="M825.1,25.6c0,2.9-2.4,5.3-5.3,5.3c-2.9,0-5.3-2.4-5.3-5.3s2.4-5.3,5.3-5.3
					C822.8,20.3,825.1,22.7,825.1,25.6z"/>
				<path class="st3" d="M822.5,25.6c0,1.5-1.2,2.7-2.7,2.7c-1.5,0-2.7-1.2-2.7-2.7c0-1.5,1.2-2.7,2.7-2.7
					C821.3,22.9,822.5,24.1,822.5,25.6z"/>
			</g>
			<g>
				<path class="st3" d="M974.8,141.8c0,2.9-2.4,5.3-5.3,5.3c-2.9,0-5.3-2.4-5.3-5.3s2.4-5.3,5.3-5.3
					C972.4,136.6,974.8,138.9,974.8,141.8z"/>
				<path class="st3" d="M972.2,141.8c0,1.5-1.2,2.7-2.7,2.7c-1.5,0-2.7-1.2-2.7-2.7c0-1.5,1.2-2.7,2.7-2.7
					C971,139.2,972.2,140.3,972.2,141.8z"/>
			</g>
			<g>
				<path class="st3" d="M1038.8,189.5c0,2.9-2.4,5.3-5.3,5.3c-2.9,0-5.3-2.4-5.3-5.3s2.4-5.3,5.3-5.3
					C1036.4,184.3,1038.8,186.6,1038.8,189.5z"/>
				<path class="st3" d="M1036.2,189.5c0,1.5-1.2,2.7-2.7,2.7c-1.5,0-2.7-1.2-2.7-2.7c0-1.5,1.2-2.7,2.7-2.7
					C1035,186.9,1036.2,188.1,1036.2,189.5z"/>
			</g>
			<g>
				<path class="st3" d="M980.1,385.4c0,2.9-2.4,5.3-5.3,5.3c-2.9,0-5.3-2.4-5.3-5.3s2.4-5.3,5.3-5.3
					C977.7,380.2,980.1,382.5,980.1,385.4z"/>
				<path class="st3" d="M977.5,385.4c0,1.5-1.2,2.7-2.7,2.7c-1.5,0-2.7-1.2-2.7-2.7c0-1.5,1.2-2.7,2.7-2.7
					C976.3,382.8,977.5,384,977.5,385.4z"/>
			</g>
			<g>
				<circle class="st3" cx="883.6" cy="385.4" r="5.3"/>
				<circle class="st3" cx="883.6" cy="385.4" r="2.7"/>
			</g>
			<g>
				<path class="st3" d="M1131.5,317.8c0,2.9-2.4,5.3-5.3,5.3s-5.3-2.4-5.3-5.3c0-2.9,2.4-5.3,5.3-5.3S1131.5,314.9,1131.5,317.8z"
					/>
				<path class="st3" d="M1128.9,317.8c0,1.5-1.2,2.7-2.7,2.7c-1.5,0-2.7-1.2-2.7-2.7c0-1.5,1.2-2.7,2.7-2.7
					C1127.7,315.2,1128.9,316.4,1128.9,317.8z"/>
			</g>
			<g>
				<path class="st3" d="M1041.4,320.5c0,2.9-2.4,5.3-5.3,5.3c-2.9,0-5.3-2.4-5.3-5.3c0-2.9,2.4-5.3,5.3-5.3
					C1039.1,315.2,1041.4,317.6,1041.4,320.5z"/>
				<path class="st3" d="M1038.8,320.5c0,1.5-1.2,2.7-2.7,2.7c-1.5,0-2.7-1.2-2.7-2.7c0-1.5,1.2-2.7,2.7-2.7
					C1037.7,317.8,1038.8,319,1038.8,320.5z"/>
			</g>
			<g>
				<path class="st3" d="M819.9,329.9c0,2.9-2.4,5.3-5.3,5.3c-2.9,0-5.3-2.4-5.3-5.3c0-2.9,2.4-5.3,5.3-5.3
					C817.5,324.7,819.9,327,819.9,329.9z"/>
				<path class="st3" d="M817.3,329.9c0,1.5-1.2,2.7-2.7,2.7c-1.5,0-2.7-1.2-2.7-2.7c0-1.5,1.2-2.7,2.7-2.7
					C816.1,327.3,817.3,328.5,817.3,329.9z"/>
			</g>
			<g>
				<path class="st3" d="M1341.9,385.4c0,2.9-2.4,5.3-5.3,5.3c-2.9,0-5.3-2.4-5.3-5.3s2.4-5.3,5.3-5.3
					C1339.5,380.2,1341.9,382.5,1341.9,385.4z"/>
				<circle class="st3" cx="1336.6" cy="385.4" r="2.7"/>
			</g>
			<g>
				<circle class="st3" cx="1434.1" cy="274.4" r="5.3"/>
				<circle class="st3" cx="1434.1" cy="274.4" r="2.7"/>
			</g>
			<g>
				<path class="st3" d="M1754,215.2c0,2.9-2.4,5.3-5.3,5.3c-2.9,0-5.3-2.4-5.3-5.3c0-2.9,2.4-5.3,5.3-5.3
					C1751.6,210,1754,212.3,1754,215.2z"/>
				<path class="st3" d="M1751.4,215.2c0,1.5-1.2,2.7-2.7,2.7c-1.5,0-2.7-1.2-2.7-2.7c0-1.5,1.2-2.7,2.7-2.7
					C1750.2,212.6,1751.4,213.8,1751.4,215.2z"/>
			</g>
			<g>
				<path class="st3" d="M1126.2,25.6c0,2.9-2.4,5.3-5.3,5.3c-2.9,0-5.3-2.4-5.3-5.3s2.4-5.3,5.3-5.3
					C1123.9,20.3,1126.2,22.7,1126.2,25.6z"/>
				<path class="st3" d="M1123.6,25.6c0,1.5-1.2,2.7-2.7,2.7c-1.5,0-2.7-1.2-2.7-2.7c0-1.5,1.2-2.7,2.7-2.7
					C1122.5,22.9,1123.6,24.1,1123.6,25.6z"/>
			</g>
		</g>
		<g>
			<polygon class="st2" points="1345.4,510.8 1443.7,62.5 886.1,291.9 			"/>
			<polygon class="st2" points="0,559.4 788.6,628.3 114.3,291.2 0,338.2 			"/>
			<polygon class="st2" points="1443.7,62.5 1823.2,-17.6 1694.6,-243.2 			"/>
			<polygon class="st2" points="827.7,53.2 1443.7,62.5 1083.9,-127.2 			"/>
			<polygon class="st2" points="665.4,91.3 886.1,291.9 827.7,53.2 			"/>
			<polyline class="st2" points="886.1,291.9 788.6,628.3 665.4,91.3 			"/>
			<path class="st2" d="M788.6,628.3"/>
			<line class="st2" x1="665.4" y1="91.3" x2="114.3" y2="291.2"/>
			<polyline class="st2" points="665.4,91.3 250.9,48.6 114.3,291.2 			"/>
			<polygon class="st2" points="1504.2,704 1443.7,62.5 1875.5,230.4 			"/>
			<path class="st2" d="M1919.6,72.2c-157.9-2.7-316.8-5.2-476-9.7"/>
			<path class="st2" d="M1919.6,31.3c-29.9-15.2-59.8-30.4-89.7-45.5c-2.2-1.1-4.5-2.3-6.7-3.4c20.7,4.9,41.5,9.9,62.2,14.8
				c11.3,2.7,22.7,5.4,34,8.1"/>
			<path class="st2" d="M1920,211.2c-14.5,7-29.6,12.1-44.5,19.2c9.6-11.8,0.8-0.3,0,0c14.8-19.7,32.5-34.9,44.2-54.1"/>
			<polyline class="st2" points="788.6,628.3 1182.1,170.1 1232.6,-48.8 1694.6,-243.2 			"/>
			<path class="st2" d="M1116.2-413.5c-96,157.6-194.4,311.5-288.4,466.7c20.1,6.6,0.1-0.1,0,0c96.6,31.4,192.4,64.2,290.8,97
				c15.1,5,30.3,10.1,45.4,12.6c7.6,2.5,15.1,5,17.7,10.1c53,100.9,95.9,196.7,146.3,297.6c5,12.6,7.6,27.7,17.7,40.4
				c37.8,45.4,70.6,85.8,105.9,131.2c2.5,2.5,7.6,5,10.1,7.6c15.1,17.7,27.7,37.8,42.6,54.4"/>
			<path class="st2" d="M250.9,48.6c277.3-59.9,554.8-115.4,829.7-175.9c25.2-93.3,37.8-191.7,60.1-286.6"/>
		</g>
	</g>
</g>
<g id="societyBG">
	<rect x="0" y="-330" transform="matrix(-1 -1.224647e-16 1.224647e-16 -1 1920 300)" class="st4" width="1920" height="960"/>
</g>
<g id="society">
	<g class="st1">
		<g class="st5">
			<line class="st6" x1="200.4" y1="302.7" x2="1667.8" y2="298.6"/>
			<path class="st7" d="M200.4,320.4c4.9,0,223.8-8.6,227.5-8.6c3.7,0,229.9,7.4,235.7,7.4s231-9.2,234.3-9.2
				c3.6,0,194.8,5.6,199.3,5.6c4.2,0,135.2-4.3,137.3-4.3c2.1,0,186.9,8.6,191,8.6s158-7.9,159.7-7.9c1.6,0,81,4.2,82.8,4.2"/>
			<path class="st8" d="M200.4,338.2c9.8,0,220.8-16.6,228.2-16.6c7.4,0,225,15.5,236.6,15.5s228.2-17.7,234.8-17.7
				c7.1,0,191.6,11.8,200.4,11.8c8.3,0,134-8.3,138.2-8.3c4.2,0,181.2,17.8,189.4,17.8c8.2,0,155.2-15.3,158.5-15.3
				c3.3,0,77.8,8.6,81.4,8.6"/>
			<path class="st9" d="M200.4,355.9c14.7,0,217.8-24.7,228.9-24.7s220,23.6,237.5,23.6s225.4-26.1,235.3-26.1
				c10.7,0,188.4,18,201.6,18c12.5,0,132.8-12.3,139.1-12.3c6.3,0,175.6,27,187.9,27c12.3,0,152.4-22.7,157.3-22.7s74.5,13,79.9,13"
				/>
			<path class="st10" d="M200.4,373.7C220,373.7,415.1,341,430,341c14.9,0,215.1,31.6,238.3,31.6c23.2,0,222.7-34.6,235.7-34.6
				c14.3,0,185.2,24.2,202.8,24.2c16.7,0,131.7-16.2,140-16.2c8.3,0,169.9,36.2,186.3,36.2c16.4,0,149.6-30.1,156.2-30.1
				c6.5,0,71.3,17.5,78.4,17.5"/>
			<path class="st11" d="M200.4,391.4c24.6,0,211.8-40.7,230.4-40.7c18.6,0,210.2,39.7,239.2,39.7c29,0,219.9-43.1,236.2-43.1
				c17.9,0,182,30.4,204,30.4c20.8,0,130.5-20.2,140.9-20.2c10.4,0,164.2,45.4,184.8,45.4c20.5,0,146.8-37.5,155-37.5
				c8.2,0,68.1,21.9,77,21.9"/>
			<path class="st12" d="M200.4,409.2c29.5,0,208.8-48.7,231.1-48.7c22.3,0,205.3,47.8,240.1,47.8c34.8,0,217.1-51.6,236.7-51.6
				c21.4,0,178.7,36.6,205.2,36.6c25,0,129.3-24.2,141.8-24.2c12.5,0,158.6,54.5,183.2,54.5s144-44.9,153.8-44.9
				s64.8,26.3,75.5,26.3"/>
			<path class="st13" d="M200.4,426.9c34.4,0,205.7-56.7,231.8-56.7s200.4,55.9,241,55.9c40.6,0,214.3-60.1,237.2-60.1
				c25,0,175.5,42.8,206.4,42.8c29.2,0,128.1-28.1,142.7-28.1c14.6,0,152.9,63.7,181.7,63.7c28.7,0,141.2-52.3,152.6-52.3
				s61.6,30.7,74.1,30.7"/>
			<path class="st14" d="M200.4,444.6c39.3,0,202.7-64.7,232.5-64.7c29.8,0,195.5,63.9,241.9,63.9s211.5-68.6,237.7-68.6
				c28.6,0,172.3,49,207.5,49c33.3,0,127-32.1,143.6-32.1c16.7,0,147.3,72.9,180.1,72.9c32.8,0,138.4-59.7,151.5-59.7
				c13.1,0,58.3,35.2,72.6,35.2"/>
			<path class="st15" d="M200.4,462.4c44.2,0,199.7-72.7,233.2-72.7s190.5,72,242.8,72s208.8-77.1,238.2-77.1
				c32.2,0,169.1,55.2,208.7,55.2c37.5,0,125.8-36.1,144.6-36.1c18.8,0,141.6,82.1,178.5,82.1c36.9,0,135.6-67.1,150.3-67.1
				c14.7,0,55.1,39.6,71.1,39.6"/>
			<path class="st16" d="M200.4,480.1c49.1,0,196.7-80.7,233.9-80.7c37.2,0,185.6,80.1,243.7,80.1s206-85.6,238.7-85.6
				c35.7,0,165.8,61.4,209.9,61.4c41.7,0,124.6-40.1,145.5-40.1s135.9,91.2,177,91.2s132.7-74.5,149.1-74.5c16.4,0,51.8,44,69.7,44"
				/>
			<path class="st17" d="M200.4,497.9c54,0,193.7-88.7,234.6-88.7c40.9,0,180.7,88.2,244.6,88.2s203.2-94.1,239.2-94.1
				c39.3,0,162.6,67.6,211.1,67.6c45.8,0,123.5-44,146.4-44s130.3,100.4,175.4,100.4c45.2,0,129.9-81.9,147.9-81.9
				c18,0,48.6,48.4,68.2,48.4"/>
			<path class="st18" d="M200.4,515.6c58.9,0,190.7-96.7,235.4-96.7c44.6,0,175.8,96.2,245.4,96.2s200.4-102.6,239.7-102.6
				c42.9,0,159.4,73.8,212.3,73.8c50,0,122.3-48,147.3-48S1405,548,1454.3,548c49.3,0,127.1-89.3,146.8-89.3
				c19.6,0,45.3,52.9,66.8,52.9"/>
			<path class="st19" d="M200.4,533.4c63.8,0,187.7-104.7,236.1-104.7c48.4,0,170.9,104.3,246.3,104.3S880.4,421.8,923,421.8
				c46.4,0,156.2,80,213.4,80c54.2,0,121.1-52,148.2-52c27.1,0,119,118.8,172.3,118.8s124.3-96.7,145.6-96.7
				c21.3,0,42.1,57.3,65.3,57.3"/>
			<path class="st20" d="M200.4,551.1c68.8,0,184.7-112.7,236.8-112.7c52.1,0,166,112.4,247.2,112.4s194.9-119.6,240.7-119.6
				c50,0,153,86.2,214.6,86.2c58.3,0,119.9-55.9,149.1-55.9c29.2,0,113.3,128,170.8,128c57.5,0,121.5-104.1,144.4-104.1
				s38.8,61.7,63.8,61.7"/>
			<path class="st21" d="M200.4,568.9c73.7,0,181.7-120.7,237.5-120.7c55.8,0,161,120.5,248.1,120.5S878,440.5,927.1,440.5
				c53.6,0,149.7,92.4,215.8,92.4c62.5,0,118.8-59.9,150-59.9c31.3,0,107.6,137.1,169.2,137.1c61.6,0,118.7-111.5,143.2-111.5
				c24.6,0,35.6,66.1,62.4,66.1"/>
			<path class="st22" d="M200.4,586.6c78.6,0,178.7-128.7,238.2-128.7c59.5,0,156.1,128.5,249,128.5c92.9,0,189.3-136.6,241.7-136.6
				c57.2,0,146.5,98.6,217,98.6c66.7,0,117.6-63.9,150.9-63.9c33.3,0,102,146.3,167.7,146.3S1580.7,512,1606.9,512
				c26.2,0,32.4,70.6,60.9,70.6"/>
			<path class="st23" d="M200.4,604.4c83.5,0,175.7-136.8,238.9-136.8s151.2,136.6,249.9,136.6c98.7,0,186.5-145.1,242.2-145.1
				c60.7,0,143.3,104.8,218.2,104.8c70.8,0,116.4-67.8,151.8-67.8c35.4,0,96.3,155.5,166.1,155.5s113.1-126.3,140.9-126.3
				c27.8,0,29.1,75,59.5,75"/>
			<path class="st24" d="M200.4,622.1c88.4,0,172.7-144.8,239.6-144.8S586.3,622,690.8,622c104.5,0,183.7-153.6,242.7-153.6
				c64.3,0,140.1,111,219.4,111c75,0,115.3-71.8,152.8-71.8c37.5,0,90.7,164.7,164.6,164.7c73.9,0,110.3-133.7,139.7-133.7
				c29.5,0,25.9,79.4,58,79.4"/>
			<path class="st25" d="M200.4,639.9c93.3,0,169.6-152.8,240.3-152.8c70.7,0,141.4,152.8,251.6,152.8
				c110.3,0,181-162.1,243.2-162.1c67.9,0,136.8,117.2,220.5,117.2c79.2,0,114.1-75.8,153.7-75.8c39.6,0,85,173.8,163,173.8
				c78,0,107.4-141.1,138.5-141.1c31.1,0,22.6,83.9,56.5,83.9"/>
		</g>
		<g>
			<path class="st26" d="M53.1,220.4c0,0,100.3-90.4,165.1-90C283.1,130.9,432.1,341.1,576,342C719.9,343,803,87.5,896.1,88.1
				c93.1,0.6,249.6,268.4,396.3,269.4c146.7,1,273.1-283,340.4-282.5S1750,283,1920,284.2"/>
			<path class="st27" d="M49.8,222.4c5.1,0,104.8-80.4,171.9-80c45.9,0.3,125.3,70.9,214.3,129c48.4,31.6,99.9,60.6,151.5,63.3
				c20.9,1.1,40.7-3,59.6-11.4C757.4,274.3,826.8,69.9,906.7,70.5c90.9,0.6,240.3,265.8,382.1,276c50.4,3.6,98.1-27.1,143.3-69.4
				c84.9-79.3,149.1-199.2,192.7-198.9c65.9,0.4,116.1,206.5,284.2,207.6"/>
			<path class="st28" d="M46.5,224.3c10.3,0.1,109.3-70.4,178.8-70c49.6,0.3,130.4,52.1,219.4,106c49.2,29.8,101.4,61.9,154.4,67
				c21.2,2,41.5-1.1,61.1-9.1c110.6-45,177-266,257-265.5c88.7,0.6,231.1,263.2,367.9,282.7c48.9,7,95.1-19.4,140.4-58.3
				c87.5-75.1,147.5-196.1,191.2-195.8c64.5,0.4,114.9,205,281.3,206.1"/>
			<path class="st29" d="M43.2,226.3c15.4,0.1,113.9-60.4,185.6-59.9c53.4,0.4,135.7,33.4,224.5,83c50.1,28,102.9,63.2,157.4,70.7
				c21.4,2.9,42.3,0.8,62.6-6.7c111-41.1,174.4-278.7,254.5-278.2c86.5,0.6,222,260.8,353.7,289.3c47.5,10.3,92.3-11.6,137.6-47.2
				c90.3-70.9,145.9-193,189.7-192.7c63.1,0.4,113.8,203.4,278.3,204.5"/>
			<path class="st30" d="M39.9,228.2c20.5,0.1,118.4-50.4,192.4-49.9c57.1,0.4,141,14.5,229.7,60c50.9,26.1,104.4,64.5,160.3,74.4
				c21.7,3.9,43.1,2.7,64-4.3C797.5,271.1,858,17,938.3,17.6c84.3,0.6,213,258.4,339.5,295.9c46.2,13.7,89.6-3.8,134.8-36
				c93.2-66.6,144.3-189.9,188.2-189.6c61.7,0.4,112.6,201.9,275.3,203"/>
			<path class="st31" d="M36.5,230.2c25.7,0.2,122.9-40.4,199.2-39.9c60.8,0.4,146.3-4.3,234.8,37c51.9,24.2,105.9,65.8,163.2,78.2
				c22,4.8,43.9,4.5,65.5-2C810.8,269.8,868.4-0.6,948.8-0.1c82.1,0.5,204,256.2,325.3,302.6c44.8,17.1,87,4.1,131.9-24.9
				c96.3-62.2,142.7-186.8,186.7-186.5c60.4,0.4,111.4,200.3,272.4,201.4"/>
			<path class="st32" d="M33.2,232.1c30.8,0.2,127.4-30.4,206.1-29.9c64.5,0.4,151.7-23.3,239.9,14c52.8,22.3,107.3,67,166.1,81.9
				c22.3,5.6,44.7,6.4,67,0.4C824,268.4,878.8-18.2,959.4-17.7c79.9,0.5,194.9,254.1,311.2,309.2c43.4,20.6,84.4,12.1,129.1-13.8
				c99.6-57.8,141.1-183.7,185.2-183.4c59,0.4,110.3,198.8,269.4,199.8"/>
			<path class="st33" d="M29.9,234.1c35.9,0.2,132-20.4,212.9-19.9c68.2,0.5,157.2-42.3,245.1-9c53.7,20.3,108.8,68.2,169.1,85.6
				c22.6,6.5,45.5,8.2,68.4,2.8C837.1,266.9,889.3-35.9,969.9-35.3c77.7,0.5,185.9,252.1,297,315.8c42.1,24.1,82,20.2,126.2-2.7
				c103-53.2,139.5-180.6,183.7-180.3c57.6,0.4,109.1,197.2,266.4,198.3"/>
			<path class="st34" d="M26.6,236c41.1,0.3,136.5-10.4,219.7-9.9c71.9,0.5,162.7-61.4,250.2-32.1c54.7,18.3,110.3,69.4,172,89.3
				c22.9,7.4,46.3,10.1,69.9,5.1C850.3,265.3,899.7-53.5,980.5-53c75.5,0.5,176.8,250.3,282.8,322.5c40.7,27.7,79.6,28.3,123.4,8.4
				c106.6-48.4,137.9-177.5,182.2-177.2c56.2,0.4,107.9,195.7,263.4,196.7"/>
			<path class="st35" d="M23.2,238c46.2,0.3,141-0.4,226.5,0.1c75.6,0.5,168.2-80.5,255.4-55.1c55.7,16.3,111.8,70.6,174.9,93.1
				c23.2,8.3,47,11.9,71.4,7.5c112-20,158.7-354.8,239.6-354.2c73.3,0.5,167.6,248.6,268.6,329.1c39.2,31.3,77.2,36.6,120.5,19.6
				c110.3-43.4,136.3-174.4,180.7-174.1c54.8,0.4,106.8,194.2,260.5,195.2"/>
			<path class="st36" d="M19.9,239.9c51.3,0.3,145.5,9.6,233.3,10.1c79.3,0.5,173.7-99.8,260.5-78.1
				c56.7,14.2,113.3,71.8,177.8,96.8c23.5,9.1,47.8,13.6,72.8,9.9c112.1-16.9,156.1-367.5,237.1-366.9
				c71.1,0.5,158.3,246.9,254.4,335.7c37.8,34.9,74.9,45,117.7,30.7c114.1-38.1,134.6-171.3,179.2-171
				c53.4,0.4,105.6,192.6,257.5,193.6"/>
			<path class="st37" d="M16.6,241.9c56.5,0.4,150.1,19.6,240.2,20.2C339.8,262.6,436,143,522.4,161c57.7,12,114.9,72.9,180.7,100.5
				c23.8,10,48.6,15.4,74.3,12.2c112.2-13.8,153.5-380.1,234.7-379.6c69,0.5,149,245.3,240.2,342.4c36.3,38.6,72.6,53.4,114.8,41.8
				c118-32.5,133-168.2,177.7-167.9c52.1,0.3,104.4,191.1,254.5,192.1"/>
			<path class="st38" d="M13.3,243.9c61.6,0.4,154.6,29.6,247,30.2C347,274.6,445,135.5,531,149.9c58.8,9.8,116.4,74,183.7,104.2
				c24.1,10.8,49.3,17.1,75.8,14.6c112.3-10.7,150.9-392.8,232.2-392.3c66.8,0.4,139.5,243.7,226,349c34.7,42.2,70.3,62,112,52.9
				c121.9-26.6,131.4-165.1,176.2-164.8c50.7,0.3,103.3,189.5,251.5,190.5"/>
			<path class="st39" d="M10,245.8c66.7,0.4,159.1,39.6,253.8,40.2C354.2,286.6,454,128,539.7,138.9c59.8,7.6,117.9,75.1,186.6,108
				c24.5,11.7,50.1,18.9,77.2,17c112.4-7.8,148.2-405.5,229.7-405c64.6,0.4,129.9,242.1,211.9,355.6c33.2,45.9,68,70.7,109.1,64
				c125.7-20.2,129.8-162,174.7-161.7c49.3,0.3,102.1,188,248.6,189"/>
			<path class="st40" d="M6.6,247.8c71.9,0.5,163.7,49.6,260.6,50.2c94.1,0.6,195.8-177.5,281.1-170.1
				c60.8,5.2,119.5,76.2,189.5,111.7c24.8,12.5,50.9,20.6,78.7,19.3c112.5-4.9,145.6-418.2,227.2-417.6
				c62.4,0.4,120.2,240.5,197.7,362.2c31.5,49.6,65.7,79.4,106.3,75.2c129.5-13.6,128.2-158.9,173.1-158.6
				c47.9,0.3,100.9,186.4,245.6,187.4"/>
			<path class="st41" d="M3.3,249.7c77,0.5,168.2,59.5,267.4,60.2C368.6,310.6,472,112.9,557,116.8c61.8,2.9,121.1,77.2,192.4,115.4
				c25.1,13.3,51.6,22.2,80.2,21.7c112.7-2,143-430.9,224.7-430.3c60.2,0.4,110.5,238.9,183.5,368.9c29.9,53.2,63.3,88.2,103.4,86.3
				c133.1-6.5,126.6-155.8,171.6-155.5c46.5,0.3,99.8,184.9,242.6,185.8"/>
			<path class="st42" d="M0,251.7c82.1,0.5,172.7,69.5,274.3,70.2S481,105.2,565.6,105.7c84.6,0.6,164.2,142.5,277,143.2
				c112.9,0.8,140.4-443.5,222.2-443c81.8,0.5,133.3,472,269.9,472.9c136.6,0.9,125-152.8,170.1-152.5
				c45.1,0.3,98.6,183.3,239.7,184.3"/>
		</g>
		<g>
			<line class="st43" x1="80.4" y1="299.5" x2="1835.8" y2="299.5"/>
			<path class="st44" d="M82,298.3c10.5,0,322.2-19.6,329.1-19.6c6.9,0,452,23.5,463,23.5c11.1,0,469.9-28.8,478.6-28.8
				c8.7,0,470.8,28.8,486.7,28.8"/>
			<path class="st45" d="M83.5,297.1c21,0,314.5-39.3,328.4-39.3c13.8,0,444.6,47,466.7,47s460.9-57.5,478.3-57.5
				c17.4,0,454.2,57.5,486.1,57.5"/>
			<path class="st46" d="M85.1,295.9c31.5,0,306.9-58.9,327.7-58.9c20.8,0,437.2,70.5,470.4,70.5s451.9-86.3,477.9-86.3
				c26.1,0,437.6,86.3,485.5,86.3"/>
			<path class="st47" d="M86.7,294.7c42.1,0,299.3-78.5,327-78.5c27.7,0,429.9,94,474.1,94s442.8-115.1,477.6-115.1
				c34.8,0,421,115.1,484.8,115.1"/>
			<path class="st48" d="M88.3,293.5c52.6,0,291.7-98.2,326.3-98.2s422.5,117.5,477.8,117.5S1326.2,169,1369.6,169
				c43.4,0,404.4,143.8,484.2,143.8"/>
			<path class="st49" d="M89.9,292.3c63.1,0,284-117.8,325.6-117.8s415.1,141,481.5,141c66.3,0,424.8-172.6,476.9-172.6
				c52.1,0,387.8,172.6,483.6,172.6"/>
			<path class="st50" d="M91.4,291.1c73.6,0,276.4-137.4,324.9-137.4s407.8,164.5,485.1,164.5c77.4,0,415.8-201.4,476.6-201.4
				c60.8,0,371.2,201.4,482.9,201.4"/>
			<path class="st51" d="M93,289.8c84.1,0,268.8-157.1,324.2-157.1c55.4,0,400.4,188,488.8,188c88.4,0,406.8-230.1,476.3-230.1
				c69.5,0,354.6,230.1,482.3,230.1"/>
			<path class="st52" d="M94.6,288.6c94.6,0,261.1-176.7,323.5-176.7s393,211.5,492.5,211.5s397.8-258.9,476-258.9
				c78.2,0,338,258.9,481.7,258.9"/>
			<path class="st53" d="M96.2,287.4c105.1,0,253.5-196.3,322.8-196.3c69.2,0,385.7,235,496.2,235c110.5,0,388.7-287.7,475.6-287.7
				c86.9,0,321.4,287.7,481,287.7"/>
			<path class="st54" d="M97.8,286.2c115.7,0,245.9-216,322.1-216c76.2,0,378.3,258.5,499.9,258.5S1299.4,12.3,1395,12.3
				c95.6,0,304.8,316.4,480.4,316.4"/>
			<path class="st55" d="M99.4,285c126.2,0,238.3-235.6,321.3-235.6c83.1,0,370.9,282,503.6,282s370.7-345.2,475-345.2
				c104.3,0,288.2,345.2,479.8,345.2"/>
			<path class="st56" d="M100.9,283.8c136.7,0,230.6-255.2,320.6-255.2s363.6,305.5,507.3,305.5s361.7-374,474.7-374
				c113,0,271.6,374,479.1,374"/>
			<path class="st57" d="M102.5,282.6c147.2,0,223-274.9,319.9-274.9s356.2,329,510.9,329c154.7,0,352.7-402.7,474.3-402.7
				c121.7,0,255,402.7,478.5,402.7"/>
			<path class="st58" d="M104.1,281.4c157.7,0,215.4-294.5,319.2-294.5S772.2,339.4,938,339.4s343.7-431.5,474-431.5
				s238.4,431.5,477.9,431.5"/>
			<path class="st59" d="M105.7,280.2C273.9,280.2,313.4-34,424.2-34C535-34,765.7,342,942.5,342c176.8,0,334.7-460.3,473.7-460.3
				S1638,342,1893.5,342"/>
		</g>
		<g>
			<path class="st28" d="M115.3,233.5c0,0,90.8-81.8,149.4-81.4c58.7,0.4,193.5,190.6,323.7,191.5
				c130.2,0.9,205.5-230.4,289.7-229.8s225.8,242.9,358.6,243.8s247.1-256.1,308-255.7c60.9,0.4,106.1,188.3,259.9,189.3"/>
			<path class="st60" d="M1810.2,291.7c-146.5-1-203.9-179.9-261.9-180.3c-58-0.4-184.6,244.3-311,243.5S956.9,123.3,876.7,122.7
				S708.3,342.4,584.3,341.6c-124-0.8-268.9-182-324.8-182.4c-55.9-0.4-149.7,77.6-149.7,77.6"/>
			<path class="st61" d="M1815.7,292.2c-139.1-0.9-208.8-170.9-263.9-171.3c-55.1-0.4-194,232.1-314.1,231.3
				c-120.1-0.8-286.3-220.1-362.5-220.6c-76.2-0.5-177.2,208.7-295,207.9c-117.8-0.8-272.7-172.9-325.8-173.2
				C201.3,166,104.3,240,104.3,240"/>
			<path class="st62" d="M1821.2,292.7c-131.8-0.9-213.7-161.9-265.9-162.3c-52.2-0.3-203.3,219.9-317.1,219.1
				c-113.8-0.8-292.2-208.5-364.4-209c-72.2-0.5-186,197.7-297.6,197c-111.6-0.7-276.6-163.8-326.8-164.1
				c-50.3-0.3-150.4,69.8-150.4,69.8"/>
			<path class="st63" d="M1826.6,293.2c-124.5-0.8-218.6-152.9-267.9-153.2c-49.3-0.3-212.7,207.7-320.1,207
				c-107.5-0.7-298.2-196.9-366.4-197.3c-68.2-0.5-194.8,186.7-300.2,186c-105.4-0.7-280.4-154.7-327.9-155
				c-47.5-0.3-150.7,65.9-150.7,65.9"/>
			<path class="st64" d="M1832.1,293.8c-117.2-0.8-223.5-143.9-269.9-144.2c-46.4-0.3-222,195.5-323.2,194.8
				c-101.1-0.7-304.1-185.3-368.3-185.7c-64.2-0.4-203.7,175.7-302.9,175.1c-99.2-0.7-284.2-145.6-328.9-145.9
				c-44.7-0.3-151,62-151,62"/>
			<path class="st65" d="M1837.6,294.3c-109.9-0.7-228.4-134.9-271.9-135.2c-43.5-0.3-231.4,183.2-326.2,182.6
				c-94.8-0.6-310.1-173.7-370.3-174.1c-60.2-0.4-212.5,164.8-305.5,164.1c-93-0.6-288.1-136.5-330-136.8
				c-41.9-0.3-151.4,58.2-151.4,58.2"/>
			<path class="st66" d="M1843.1,294.8c-102.5-0.7-233.3-125.9-273.9-126.2c-40.6-0.3-240.7,171-329.2,170.4
				c-88.5-0.6-316.1-162.1-372.2-162.5c-56.2-0.4-221.3,153.8-308.1,153.2c-86.8-0.6-291.9-127.4-331-127.6
				c-39.1-0.3-151.7,54.3-151.7,54.3"/>
			<path class="st67" d="M1848.6,295.3c-95.2-0.6-238.2-116.9-275.9-117.2c-37.7-0.3-250.1,158.8-332.3,158.3
				s-322-150.6-374.2-150.9S636.1,328.3,555.5,327.7c-80.6-0.5-295.8-118.3-332.1-118.5c-36.3-0.2-152,50.4-152,50.4"/>
			<path class="st68" d="M1854.1,295.8c-87.9-0.6-243.2-107.9-277.9-108.2c-34.8-0.2-259.4,146.6-335.3,146.1
				c-75.9-0.5-328-139-376.1-139.3s-239,131.8-313.4,131.3c-74.4-0.5-299.6-109.2-333.1-109.4c-33.5-0.2-152.3,46.5-152.3,46.5"/>
			<path class="st69" d="M1859.6,296.3c-80.6-0.5-248.1-98.9-279.9-99.2c-31.9-0.2-268.8,134.4-338.3,133.9S907.4,203.7,863.3,203.4
				s-247.8,120.8-316,120.4C479,323.3,243.8,223.7,213,223.5c-30.7-0.2-152.6,42.7-152.6,42.7"/>
			<path class="st70" d="M1865.1,296.8c-73.2-0.5-253-89.9-281.9-90.1c-29-0.2-278.1,122.2-341.3,121.7
				c-63.2-0.4-339.9-115.8-380-116.1S605.1,322.2,543.1,321.8c-62-0.4-307.3-91-335.2-91.2c-27.9-0.2-153,38.8-153,38.8"/>
			<path class="st71" d="M1870.6,297.4c-65.9-0.4-257.9-81-284-81.1c-26.1-0.2-287.5,109.9-344.4,109.6s-345.9-104.2-382-104.5
				c-36.1-0.2-265.5,98.9-321.3,98.5c-55.8-0.4-311.1-81.9-336.3-82.1c-25.1-0.2-153.3,34.9-153.3,34.9"/>
			<path class="st72" d="M1876.1,297.9c-58.6-0.4-262.8-72-286-72.1c-23.2-0.2-296.8,97.7-347.4,97.4
				c-50.6-0.3-351.8-92.7-383.9-92.9c-32.1-0.2-274.3,87.9-323.9,87.5c-49.6-0.3-315-72.8-337.3-72.9c-22.3-0.1-153.6,31-153.6,31"
				/>
			<path class="st73" d="M1881.6,298.4c-51.3-0.3-267.7-63-288-63.1c-20.3-0.1-306.2,85.5-350.4,85.2
				c-44.3-0.3-357.8-81.1-385.9-81.3c-28.1-0.2-283.2,76.9-326.6,76.6c-43.4-0.3-318.8-63.7-338.4-63.8
				c-19.6-0.1-153.9,27.1-153.9,27.1"/>
			<path class="st74" d="M1887.1,298.9c-43.9-0.3-272.6-54-290-54.1c-17.4-0.1-315.5,73.3-353.5,73c-37.9-0.3-363.7-69.5-387.8-69.7
				c-24.1-0.2-292,65.9-329.2,65.7c-37.2-0.2-322.7-54.6-339.4-54.7c-16.8-0.1-154.3,23.3-154.3,23.3"/>
			<path class="st75" d="M1892.5,299.4c-36.6-0.2-277.5-45-292-45.1c-14.5-0.1-324.9,61.1-356.5,60.9c-31.6-0.2-369.7-57.9-389.8-58
				s-300.8,54.9-331.8,54.7c-31-0.2-326.5-45.5-340.5-45.6c-14-0.1-154.6,19.4-154.6,19.4"/>
			<path class="st76" d="M1898,299.9c-29.3-0.2-282.4-36-294-36.1c-11.6-0.1-334.2,48.9-359.5,48.7c-25.3-0.2-375.7-46.3-391.7-46.4
				c-16-0.1-309.7,43.9-334.5,43.8c-24.8-0.2-330.3-36.4-341.5-36.5C165.7,273.4,22,289,22,289"/>
			<path class="st77" d="M1903.5,300.4c-22-0.1-287.3-27-296-27c-8.7-0.1-343.6,36.6-362.6,36.5c-19-0.1-381.6-34.7-393.7-34.8
				s-318.5,33-337.1,32.8c-18.6-0.1-334.2-27.3-342.6-27.4c-8.4-0.1-155.2,11.6-155.2,11.6"/>
			<path class="st78" d="M1909,301c-14.6-0.1-292.2-18-298-18c-5.8,0-352.9,24.4-365.6,24.3s-387.6-23.2-395.6-23.2
				S522.5,306,510.1,306c-12.4-0.1-338-18.2-343.6-18.2S11,295.5,11,295.5"/>
			<path class="st79" d="M1914.5,301.5c-7.3,0-297.1-9-300-9c-2.9,0-362.3,12.2-368.6,12.2c-6.3,0-393.5-11.6-397.6-11.6
				c-4,0-336.2,11-342.4,10.9c-6.2,0-341.9-9.1-344.6-9.1c-2.8,0-155.9,3.9-155.9,3.9"/>
			<line class="st80" x1="1920" y1="302" x2="0" y2="302"/>
		</g>
		<g>
			<path class="st81" d="M1791.5,185.2c-92.2,0-187.3,93.2-270.6,93.2c-83.3,0-187.4-107.3-237.9-107.3
				c-50.6,0-133.8,93.7-249.8,93.7s-133.8-70.4-172.5-70.4c-38.7,0-98.1,74.9-148.7,74.9S634.7,225,600,225
				c-34.7,0-121.4,105.7-194.3,105.7c-72.9,0-82.3-81.9-128.8-81.9s-52.6,125-171.6,125"/>
			<path class="st82" d="M111.3,373.2c113.6,0,121.4-118.7,166.8-120c44.8-1.3,54.8,74.9,124.2,73.5
				c70.3-1.5,153.4-102.5,187.7-102.5c36.3,0,65.1,48.3,117.8,50.6c8,0.3,16.2-1,24.6-3.6c48.8-15.3,98.3-76.2,133-76.2
				c39.8,0,60.9,71.6,174.2,73.1c6,0.1,11.8-0.1,17.7-0.5c53.5-3.9,97.8-28.9,135.8-49.4c39.5-21.2,71.4-39,96.5-36.1
				c21,2.4,50.6,21.7,84.6,41.5c49.9,29.1,104.6,54.6,152.5,54.6c80,0,168.7-82.1,257.2-82.1"/>
			<path class="st83" d="M117.2,372.7c108.3,0,117.6-112.4,162-115c43-2.6,53.6,68,119.6,65.1c67.7-3,147.2-99.4,181.2-99.4
				c37.9,0,68.8,52.3,123.5,56.8c8.5,0.7,17.2-0.3,26.1-2.7c52.9-14.4,103.8-81.9,140.3-81.9c40.9,0,65.4,72.9,175.9,75.9
				c6,0.2,12,0.1,17.9-0.3c55.2-3.6,99-31.8,137-51.1c38.4-19.6,69.7-32.5,95.3-26.7c21.2,4.8,50.5,25.2,84.6,43.4
				c51.5,27.5,104.8,41.6,151.5,41.6c76.7,0,159-71.1,243.9-71.1"/>
			<path class="st84" d="M123.2,372.2c103,0,113.8-106,157.2-110c41.3-3.8,52.5,61,115,56.7c65.2-4.5,141.1-96.2,174.7-96.2
				c39.5,0,72.5,56.3,129.3,62.9c8.9,1.1,18.1,0.4,27.6-1.9c57-13.4,109.3-87.6,147.7-87.6c42,0,69.9,74.3,177.6,78.7
				c6.1,0.2,12.1,0.3,18.1-0.1c56.9-3.4,100.2-34.7,138.2-52.9c37.4-17.9,68-26.2,94-17.4c21.3,7.2,50.5,28.6,84.7,45.3
				c53.3,26,105,28.5,150.6,28.5c73.5,0,149.2-60,230.5-60"/>
			<path class="st85" d="M129.1,371.7c97.6,0,110-99.7,152.4-105.1c39.5-5,51.5,54,110.5,48.4c62.7-6,134.9-93.1,168.2-93.1
				c41,0,76.2,60.3,135,69.1c9.4,1.4,19.1,1.1,29.2-1c61-12.5,114.8-93.4,155-93.4c43.2,0,74.3,75.7,179.3,81.4
				c6.2,0.3,12.3,0.5,18.3,0.1c58.6-3.1,101.4-37.6,139.3-54.6c36.3-16.3,66.3-19.8,92.8-8.1c21.4,9.5,50.5,32,84.7,47.2
				c55.1,24.4,105.2,15.5,149.7,15.5c70.2,0,139.5-48.9,217.1-48.9"/>
			<path class="st86" d="M135.1,371.2c92.3,0,106.2-93.3,147.6-100.1c37.8-6.2,50.4,47,105.9,40c60.2-7.6,128.8-89.9,161.6-89.9
				c42.6,0,79.8,64.4,140.8,75.3c9.9,1.8,20.1,1.8,30.7-0.1c65.1-11.5,120.3-99.1,162.4-99.1c44.3,0,78.8,77.2,180.9,84.2
				c6.2,0.4,12.4,0.6,18.5,0.3c60.3-3,102.5-40.5,140.5-56.4c35.2-14.7,64.6-13.5,91.5,1.3c21.6,11.9,50.5,35.4,84.8,49.1
				c56.9,22.7,105.4,2.4,148.7,2.4c67,0,129.7-37.9,203.7-37.9"/>
			<path class="st87" d="M141,370.7c87,0,102.3-86.9,142.8-95.1c36-7.3,49.3,39.9,101.3,31.6c57.7-9.2,122.6-86.8,155.1-86.8
				c44.2,0,83.5,68.4,146.5,81.5c10.4,2.1,21.1,2.5,32.2,0.8c69.3-10.5,125.8-104.8,169.7-104.8c45.4,0,83.3,78.8,182.6,87
				c6.3,0.5,12.6,0.8,18.8,0.5c62-2.7,103.6-43.4,141.7-58.2c34.1-13.2,62.9-7.2,90.2,10.6c21.8,14.2,50.6,38.7,84.8,51
				c58.7,21,105.6-10.6,147.8-10.6c63.7,0,120-26.8,190.3-26.8"/>
			<path class="st88" d="M146.9,370.2c81.6,0,98.5-80.4,138-90.1c34.2-8.4,48.3,32.7,96.7,23.2c55.2-10.8,116.5-83.6,148.6-83.6
				c45.8,0,87.2,72.5,152.3,87.7c10.8,2.5,22.1,3.1,33.8,1.6c73.4-9.5,131.3-110.5,177.1-110.5c46.6,0,87.7,80.4,184.3,89.7
				c6.4,0.6,12.7,1,19,0.7c63.7-2.5,104.7-46.4,142.9-59.9c33-11.7,61.3-0.9,89,19.9c21.9,16.5,50.7,42,84.9,52.9
				c60.6,19.3,105.7-23.7,146.9-23.7c60.4,0,110.3-15.7,177-15.7"/>
			<path class="st89" d="M152.9,369.7c76.3,0,94.7-73.9,133.2-85.1c32.5-9.4,47.2,25.5,92.2,14.9c52.8-12.5,110.3-80.5,142.1-80.5
				c47.3,0,90.8,76.6,158.1,93.8c11.3,2.9,23,3.8,35.3,2.5C791.2,306.8,850.6,199,898.1,199c47.7,0,92.2,82.1,186,92.5
				c6.5,0.7,12.8,1.2,19.2,0.9c65.5-2.2,105.8-49.4,144.1-61.7c31.8-10.2,59.6,5.4,87.7,29.3c22.1,18.8,50.8,45.2,85,54.8
				c62.6,17.5,105.9-36.7,146-36.7c57.2,0,100.5-4.7,163.6-4.7"/>
			<path class="st90" d="M158.8,369.2c71,0,90.8-67.4,128.4-80.2c30.7-10.4,46.2,18.3,87.6,6.5c50.3-14.3,104.2-77.4,135.6-77.4
				c48.9,0,94.5,80.8,163.8,100c11.8,3.3,24,4.5,36.8,3.4c81.6-7.4,142.4-122,191.8-122c48.8,0,96.6,83.9,187.7,95.3
				c6.5,0.8,13,1.3,19.4,1.1c67.2-2,106.9-52.4,145.3-63.4c30.7-8.8,58,11.7,86.4,38.6c22.3,21.1,50.9,48.4,85,56.7
				c64.5,15.5,106.1-49.8,145-49.8c53.9,0,90.8,6.4,150.2,6.4"/>
			<path class="st91" d="M164.7,368.6c65.6,0,87-60.8,123.7-75.2c29-11.4,45.1,10.9,83-1.9c47.9-16.2,98-74.2,129-74.2
				c50.5,0,98.1,84.9,169.6,106.2c12.2,3.6,25,5.2,38.4,4.2c85.7-6.4,147.9-127.7,199.1-127.7c49.9,0,101.1,85.7,189.4,98
				c6.6,0.9,13.1,1.5,19.6,1.4c68.9-1.6,107.9-55.5,146.5-65.2c29.5-7.4,56.3,18,85.2,47.9c22.5,23.4,51,51.6,85.1,58.5
				c66.4,13.6,106.3-62.8,144.1-62.8c50.7,0,81,17.5,136.8,17.5"/>
			<path class="st92" d="M170.7,368.1c60.3,0,83.2-54.1,118.9-70.2c27.2-12.3,44.1,3.4,78.4-10.3c45.4-18.1,91.9-71.1,122.5-71.1
				c52.1,0,101.8,89.1,175.3,112.4c12.7,4,26,5.9,39.9,5.1c89.8-5.4,153.4-133.5,206.4-133.5c51.1,0,105.5,87.5,191.1,100.8
				c6.7,1,13.3,1.7,19.9,1.6c70.6-1.3,108.9-58.7,147.7-67c28.3-6,54.7,24.2,83.9,57.3c22.7,25.7,51.1,54.7,85.1,60.4
				c68.4,11.5,106.5-75.9,143.2-75.9c47.4,0,71.3,28.5,123.4,28.5"/>
			<path class="st93" d="M176.6,367.6c55,0,79.5-47.4,114.1-65.2c25.5-13.2,43-4.1,73.9-18.6c42.9-20.2,85.7-67.9,116-67.9
				c53.7,0,105.4,93.2,181.1,118.6c13.2,4.4,26.9,6.7,41.4,6c93.9-4.3,158.9-139.2,213.8-139.2c52.2,0,110,89.4,192.8,103.6
				c6.7,1.2,13.4,1.9,20.1,1.8c72.3-1,109.9-61.9,148.9-68.7c27.1-4.7,53.1,30.5,82.7,66.6c22.9,27.9,51.2,57.8,85.2,62.3
				c70.4,9.4,106.7-88.9,142.3-88.9c44.1,0,61.6,39.6,110.1,39.6"/>
			<path class="st94" d="M182.6,367.1c49.7,0,75.8-40.6,109.3-60.2c23.9-14,41.8-11.7,69.3-27c40.3-22.4,79.6-64.8,109.5-64.8
				c55.2,0,109.1,97.4,186.8,124.7c13.6,4.8,27.9,7.4,43,6.9c98-3.2,164.4-144.9,221.1-144.9c53.3,0,114.4,91.4,194.5,106.3
				c6.8,1.3,13.6,2.1,20.3,2c74-0.8,111-65.2,150.1-70.5c25.9-3.5,51.5,36.8,81.4,75.9c23.1,30.2,51.3,60.9,85.2,64.2
				c72.3,7.1,106.9-102,141.3-102c40.9,0,51.8,50.7,96.7,50.7"/>
			<path class="st95" d="M188.5,366.6c44.3,0,72.1-33.7,104.5-55.3c22.3-14.8,40.5-19.4,64.7-35.4c37.6-24.8,73.4-61.6,102.9-61.6
				c56.8,0,112.7,101.6,192.6,130.9c14.1,5.2,28.9,8.1,44.5,7.7c102.1-2,169.9-150.7,228.5-150.7c54.5,0,118.8,93.3,196.2,109.1
				c6.9,1.4,13.7,2.2,20.5,2.2c75.7-0.5,112-68.6,151.3-72.2c24.7-2.3,49.9,43.1,80.1,85.3c23.3,32.5,51.4,63.9,85.3,66.1
				c74.2,4.8,107.1-115,140.4-115c37.6,0,42.1,61.7,83.3,61.7"/>
			<path class="st96" d="M194.4,366.1c39,0,68.6-26.8,99.7-50.3c20.7-15.6,39.2-27.2,60.1-43.8c34.6-27.3,67.3-58.5,96.4-58.5
				c58.4,0,116.3,105.8,198.3,137.1c14.6,5.6,29.9,8.8,46,8.6c106.2-1,175.4-156.4,235.8-156.4c55.6,0,123.2,95.4,197.9,111.9
				c6.9,1.5,13.8,2.4,20.8,2.4c77.5-0.3,113-72.1,152.5-74c23.5-1.1,48.3,49.3,78.9,94.6c23.6,34.8,51.5,66.9,85.3,68
				c76.1,2.5,107.3-128.1,139.5-128.1c34.4,0,32.4,72.8,69.9,72.8"/>
			<path class="st80" d="M200.4,365.6c93.3,0,169.6-152.8,240.3-152.8c70.7,0,141.4,152.8,251.6,152.8
				c110.3,0,181-162.1,243.2-162.1s141.4,117.2,220.5,117.2c79.2,0,114.1-75.8,153.7-75.8c39.6,0,85,173.8,163,173.8
				c78,0,107.4-141.1,138.5-141.1c31.1,0,22.6,83.9,56.5,83.9"/>
		</g>
	</g>
</g>
</svg>
